<?xml version="1.0" encoding="UTF-8" standalone="no"?><!DOCTYPE svg PUBLIC "-//W3C//DTD SVG 1.1//EN" "http://www.w3.org/Graphics/SVG/1.1/DTD/svg11.dtd"><svg width="100%" height="100%" viewBox="0 0 134 134" version="1.1" xmlns="http://www.w3.org/2000/svg" xmlns:xlink="http://www.w3.org/1999/xlink" xml:space="preserve" xmlns:serif="http://www.serif.com/" style="fill-rule:evenodd;clip-rule:evenodd;stroke-linejoin:round;stroke-miterlimit:2;"><g id="Layer_2"><path d="M68.625,70.333l41.125,-41.166c0.646,-0.755 1.002,-1.717 1.002,-2.711c-0,-2.285 -1.881,-4.166 -4.167,-4.166c-0.994,-0 -1.955,0.355 -2.71,1.002l-37.75,37.75l-36.667,-36.667c-1.614,-1.605 -4.26,-1.605 -5.875,0c-0.788,0.782 -1.232,1.848 -1.232,2.958c-0,1.111 0.444,2.177 1.232,2.959l40.042,40.041c1.373,1.369 3.627,1.369 5,0Z" style="fill:#fff;fill-rule:nonzero;"/><path d="M68.625,110.25l41.125,-41.167c0.646,-0.754 1.002,-1.716 1.002,-2.71c-0,-2.286 -1.881,-4.167 -4.167,-4.167c-0.994,0 -1.955,0.356 -2.71,1.002l-37.75,37.75l-36.667,-36.666c-1.614,-1.605 -4.26,-1.605 -5.875,-0c-1.605,1.614 -1.605,4.26 0,5.875l40.042,40.083c1.373,1.368 3.627,1.368 5,0Z" style="fill:#fff;fill-rule:nonzero;"/></g></svg>