<?xml version="1.0" encoding="UTF-8" standalone="no"?><!DOCTYPE svg PUBLIC "-//W3C//DTD SVG 1.1//EN" "http://www.w3.org/Graphics/SVG/1.1/DTD/svg11.dtd"><svg width="100%" height="100%" viewBox="0 0 292 101" version="1.1" xmlns="http://www.w3.org/2000/svg" xmlns:xlink="http://www.w3.org/1999/xlink" xml:space="preserve" xmlns:serif="http://www.serif.com/" style="fill-rule:evenodd;clip-rule:evenodd;stroke-linejoin:round;stroke-miterlimit:2;"><g id="fekvo-rovid" serif:id="fekvo rovid"><g><path d="M139.522,77.837c0.792,0.651 1.823,1.033 3.095,1.146c0.792,0.085 1.187,0.383 1.187,0.892l0,0.127c-0.084,0.595 -0.381,0.892 -0.89,0.892l-11.32,0c-0.254,0 -1.215,-1.104 -2.883,-3.312c-1.667,-2.208 -3.604,-4.84 -5.808,-7.897c-2.205,-3.057 -4.466,-6.185 -6.784,-9.384c-2.317,-3.199 -4.254,-5.774 -5.808,-7.728l-6.784,0l0,22.122c0,1.84 0.707,3.008 2.12,3.503c1.414,0.495 2.12,1.097 2.12,1.804c0,0.595 -0.283,0.892 -0.848,0.892l-14.372,0c-0.594,0 -0.891,-0.297 -0.891,-0.892c0,-0.707 0.707,-1.309 2.12,-1.804c1.413,-0.495 2.12,-1.663 2.12,-3.503l0,-47.173c0,-1.812 -0.707,-2.972 -2.12,-3.482c-1.413,-0.509 -2.12,-1.132 -2.12,-1.868c0,-0.594 0.297,-0.892 0.891,-0.892l25.014,0c2.911,0 5.949,0.517 9.115,1.55c3.166,1.033 5.611,3.036 7.335,6.008c1.356,2.406 2.035,5.294 2.035,8.662c-0.057,3.199 -0.975,6.072 -2.756,8.619c-1.413,2.01 -3.378,3.546 -5.893,4.607c-2.516,1.062 -4.904,1.663 -7.165,1.805l19.29,25.306Zm-35.995,-53.032l0,24.796l9.837,0c1.95,0 3.928,-0.283 5.935,-0.849c2.007,-0.566 3.731,-1.571 5.172,-3.015c2.262,-2.179 3.392,-5.067 3.392,-8.661c0,-3.454 -1.173,-6.341 -3.519,-8.662c-2.515,-2.406 -5.893,-3.609 -10.133,-3.609l-10.684,-0Z" style="fill:#fff;fill-rule:nonzero;"/><path d="M215.922,27.522l-0,47.173c-0,1.84 0.713,3.008 2.141,3.503c1.427,0.495 2.141,1.097 2.141,1.804c-0,0.595 -0.297,0.892 -0.891,0.892l-14.372,0c-0.594,0 -0.891,-0.297 -0.891,-0.892c0,-0.707 0.707,-1.309 2.12,-1.804c1.413,-0.495 2.12,-1.663 2.12,-3.503l0,-45.475l-24.463,52.948l-1.653,-0l-24.209,-50.952l0,43.479c0,1.84 0.707,3.008 2.12,3.503c1.413,0.495 2.12,1.097 2.12,1.804c-0,0.595 -0.297,0.892 -0.891,0.892l-10.768,0c-0.594,0 -0.891,-0.297 -0.891,-0.892c0,-0.707 0.707,-1.309 2.12,-1.804c1.413,-0.495 2.12,-1.663 2.12,-3.503l-0,-47.173c-0,-1.812 -0.707,-2.972 -2.12,-3.482c-1.413,-0.509 -2.12,-1.132 -2.12,-1.868c0,-0.594 0.297,-0.892 0.891,-0.892l11.277,0l23.191,47.64l22.471,-47.64l11.828,0c0.594,0 0.891,0.298 0.891,0.892c-0,0.736 -0.714,1.359 -2.141,1.868c-1.428,0.51 -2.141,1.67 -2.141,3.482Z" style="fill:#fff;fill-rule:nonzero;"/><path d="M243.31,27.522l-0,19.871l35.825,0l0,-19.871c0,-1.812 -0.706,-2.972 -2.12,-3.482c-1.413,-0.509 -2.119,-1.132 -2.119,-1.868c-0,-0.594 0.296,-0.892 0.89,-0.892l14.372,0c0.594,0 0.891,0.298 0.891,0.892c-0,0.736 -0.714,1.359 -2.141,1.868c-1.428,0.51 -2.141,1.67 -2.141,3.482l-0,47.173c-0,1.84 0.713,3.008 2.141,3.503c1.427,0.495 2.141,1.097 2.141,1.804c-0,0.595 -0.297,0.892 -0.891,0.892l-14.372,0c-0.594,0 -0.89,-0.297 -0.89,-0.892c-0,-0.707 0.706,-1.309 2.119,-1.804c1.414,-0.495 2.12,-1.663 2.12,-3.503l0,-23.395l-35.825,-0l-0,23.395c-0,1.84 0.707,3.008 2.12,3.503c1.413,0.495 2.12,1.097 2.12,1.804c-0,0.595 -0.283,0.892 -0.848,0.892l-14.373,0c-0.593,0 -0.89,-0.297 -0.89,-0.892c-0,-0.707 0.706,-1.309 2.12,-1.804c1.413,-0.495 2.119,-1.663 2.119,-3.503l0,-47.173c0,-1.812 -0.706,-2.972 -2.119,-3.482c-1.414,-0.509 -2.12,-1.132 -2.12,-1.868c-0,-0.594 0.297,-0.892 0.89,-0.892l14.373,0c0.565,0 0.848,0.298 0.848,0.892c-0,0.736 -0.707,1.359 -2.12,1.868c-1.413,0.51 -2.12,1.67 -2.12,3.482Z" style="fill:#fff;fill-rule:nonzero;"/></g><g id="kilincs"><path d="M36.341,50.21l0,-0.02c0,-7.948 -0.001,-17.46 -0.001,-24.014c0,-4.051 -1.476,-6.191 -2.185,-10.179c-0.733,-4.119 1.725,-8.113 5.02,-7.161c0.761,-7.699 5.918,-8.823 8.787,-8.836c2.869,0.013 8.026,1.137 8.787,8.836c3.295,-0.952 5.753,3.042 5.02,7.161c-0.709,3.988 -2.185,6.128 -2.185,10.179c-0,6.554 -0.001,16.066 -0.001,24.014l-0,0.02c-0,7.948 0.001,17.46 0.001,24.014c-0,4.051 1.476,6.191 2.185,10.179c0.733,4.119 -1.725,8.113 -5.02,7.161c-0.761,7.699 -5.918,8.823 -8.787,8.836c-2.869,-0.013 -8.026,-1.137 -8.787,-8.836c-3.295,0.952 -5.753,-3.042 -5.02,-7.161c0.709,-3.988 2.185,-6.128 2.185,-10.179c0,-6.554 0.001,-16.066 0.001,-24.014Zm9.743,12.977l-0,6.115c-0,1.029 0.835,1.864 1.864,1.864c1.029,0 1.864,-0.835 1.864,-1.864l0,-6.102c1.462,-0.694 2.473,-2.183 2.473,-3.907c-0,-2.386 -1.937,-4.323 -4.323,-4.323c-2.386,-0 -4.323,1.937 -4.323,4.323c0,1.713 0.999,3.194 2.445,3.894Z" style="fill:#fff;"/><path d="M46.552,34.946c2.159,0.014 3.901,1.778 3.888,3.937c-0.014,2.16 -1.779,3.902 -3.938,3.888c-0.606,-0.374 -0.948,-0.814 -1.865,-1.175c-0.655,-0.257 -1.296,-0.427 -2.075,-0.541c-0.615,-0.091 -1.251,-0.078 -1.886,-0.08c-1.679,-0.005 -3.334,0.08 -4.655,-0.117c-1.753,-0.238 -3.221,-0.87 -4.564,-1.648c-2.709,-1.57 -4.686,-4.071 -7.505,-5.2c-1.327,-0.52 -2.791,-0.762 -4.248,-0.89c-2.588,-0.226 -5.144,0.054 -7.047,0.271c-1.31,0.157 -3.005,0.45 -4.474,0.742c-1.025,0.204 -1.888,0.427 -2.235,0.585c-2.027,0.745 -4.277,-0.297 -5.022,-2.324c-0.744,-2.027 0.297,-4.277 2.324,-5.022c0.552,-0.156 1.721,-0.386 3.184,-0.479c1.829,-0.116 4.179,-0.189 5.91,-0.144c2.235,0.043 5.225,0.172 8.192,0.8c1.919,0.407 3.83,0.957 5.524,1.847c2.925,1.509 4.845,4.364 7.631,6.302c0.858,0.597 1.816,1.095 2.984,1.336c1.098,0.212 2.487,0.334 3.889,0.244c0.603,-0.039 1.207,-0.092 1.78,-0.241c0.761,-0.198 1.376,-0.447 1.998,-0.775c1.017,-0.536 1.498,-0.889 2.21,-1.316Z" style="fill:#fff;"/><ellipse cx="46.793" cy="38.92" rx="4.721" ry="4.721" style="fill:#fff;"/></g></g></svg>