<?xml version="1.0" encoding="UTF-8" standalone="no"?><!DOCTYPE svg PUBLIC "-//W3C//DTD SVG 1.1//EN" "http://www.w3.org/Graphics/SVG/1.1/DTD/svg11.dtd"><svg width="100%" height="100%" viewBox="0 0 474 260" version="1.1" xmlns="http://www.w3.org/2000/svg" xmlns:xlink="http://www.w3.org/1999/xlink" xml:space="preserve" xmlns:serif="http://www.serif.com/" style="fill-rule:evenodd;clip-rule:evenodd;stroke-linejoin:round;stroke-miterlimit:2;"><g id="main-logo" serif:id="main logo"><g><path d="M211.223,40.952l22.174,-21.017c2.204,-2.067 4.07,-3.85 5.596,-5.35c1.018,-1.019 2.035,-1.529 3.053,-1.529c0.508,0 1.017,0.128 1.526,0.382l4.494,2.208c0.48,0.283 0.721,0.623 0.721,1.019c-0,0.17 -0.043,0.354 -0.127,0.552l-2.205,6.199l-2.925,-1.231c-1.103,-0.453 -2.12,-0.679 -3.053,-0.679c-1.47,-0 -2.756,0.552 -3.858,1.656l-17.086,16.686l31.882,29.467c0.594,0.595 1.223,1.041 1.887,1.338c0.664,0.297 0.996,0.658 0.996,1.083c0,0.594 -0.282,0.891 -0.848,0.891l-14.372,0c-0.594,0 -0.891,-0.297 -0.891,-0.891c0,-0.227 0.156,-0.482 0.467,-0.765c0.509,-0.424 0.791,-0.806 0.848,-1.146l-0,-0.042c-0,-0.368 -0.509,-0.991 -1.526,-1.869l-26.753,-24.711l0,23.225c0,1.84 0.707,3.008 2.12,3.503c1.413,0.496 2.12,1.097 2.12,1.805c-0,0.594 -0.283,0.891 -0.848,0.891l-14.373,0c-0.593,0 -0.89,-0.297 -0.89,-0.891c-0,-0.708 0.707,-1.309 2.12,-1.805c1.413,-0.495 2.12,-1.663 2.12,-3.503l-0,-47.173c-0,-1.811 -0.707,-2.972 -2.12,-3.481c-1.413,-0.51 -2.12,-1.133 -2.12,-1.869c-0,-0.594 0.297,-0.891 0.89,-0.891l14.373,-0c0.565,-0 0.848,0.297 0.848,0.891c-0,0.736 -0.707,1.359 -2.12,1.869c-1.413,0.509 -2.12,1.67 -2.12,3.481l0,21.697Z" style="fill-rule:nonzero;"/><path d="M299.917,66.428c0,1.84 0.707,3.008 2.12,3.503c1.413,0.496 2.12,1.097 2.12,1.805c0,0.594 -0.297,0.891 -0.89,0.891l-10.303,0c-0.48,0 -0.721,-0.184 -0.721,-0.552l0,-2.76c-1.554,0.595 -2.932,1.126 -4.133,1.593c-1.201,0.467 -2.311,0.87 -3.328,1.21c-2.629,0.877 -5.328,1.458 -8.098,1.741c-0.396,0.028 -0.777,0.042 -1.145,0.042c-2.346,0 -4.579,-0.792 -6.699,-2.378c-3.448,-2.604 -5.172,-8.251 -5.172,-16.941l0,-15.328c0,-1.783 -0.707,-2.93 -2.12,-3.439c-1.413,-0.51 -2.12,-1.133 -2.12,-1.869c0,-0.594 0.297,-0.891 0.891,-0.891c1.865,-0.085 3.709,-0.375 5.532,-0.871c1.824,-0.495 3.654,-1.054 5.491,-1.677l-0,24.075c-0,6.227 1.286,10.587 3.858,13.078c1.639,1.613 3.646,2.42 6.02,2.42c1.357,-0 2.841,-0.269 4.452,-0.807c0.594,-0.198 1.371,-0.481 2.332,-0.849c0.961,-0.368 1.78,-0.68 2.459,-0.934c0.141,-0.057 0.374,-0.142 0.699,-0.255c0.325,-0.113 0.686,-0.255 1.081,-0.425l0,-27.556c0,-1.783 -0.706,-2.93 -2.119,-3.439c-1.414,-0.51 -2.12,-1.133 -2.12,-1.869c-0,-0.594 0.297,-0.891 0.89,-0.891c1.866,-0.085 3.71,-0.375 5.533,-0.871c1.823,-0.495 3.653,-1.054 5.49,-1.677l0,35.921Z" style="fill-rule:nonzero;"/><path d="M321.752,23.799c-0.085,0.028 -0.184,0.042 -0.297,0.042c-0.509,-0 -0.763,-0.241 -0.763,-0.722c-0,-0.226 0.099,-0.439 0.297,-0.637l15.898,-10.954c0.509,-0.368 1.089,-0.552 1.739,-0.552c2.091,-0 3.137,1.047 3.137,3.142c0,1.472 -0.664,2.448 -1.993,2.929l-18.018,6.752Zm10.133,8.237l0.89,-0c4.607,-0 8.847,1.245 12.719,3.736l-0.721,7.176c-0.056,0.368 -0.24,0.552 -0.551,0.552l-0.127,-0c-0.283,-0.028 -0.537,-0.311 -0.763,-0.849c-1.131,-2.463 -2.615,-4.246 -4.452,-5.35c-1.809,-1.076 -4.014,-1.614 -6.614,-1.614l-1.017,0c-3.081,0.17 -5.47,1.062 -7.165,2.675c-1.498,1.472 -2.601,3.241 -3.307,5.308c-0.735,2.066 -1.103,4.373 -1.103,6.921c0,0.849 0.043,1.712 0.127,2.59c0.283,4.217 1.428,7.671 3.435,10.36c2.628,3.538 5.568,5.548 8.818,6.029c0.537,0.085 1.088,0.128 1.654,0.128c2.543,-0 5.356,-0.85 8.437,-2.548c1.611,-0.877 2.699,-1.316 3.264,-1.316c0.141,-0 0.255,0.028 0.339,0.085c0.057,0.056 0.085,0.17 0.085,0.339c0,0.34 -0.169,0.878 -0.509,1.614c-0.424,0.849 -0.904,1.514 -1.441,1.995c-1.611,1.444 -3.59,2.442 -5.936,2.994c-2.346,0.552 -4.579,0.828 -6.698,0.828c-5.258,-0.028 -9.674,-1.493 -13.249,-4.395c-3.576,-2.901 -5.604,-7.055 -6.084,-12.462c-0.113,-1.245 -0.17,-2.462 -0.17,-3.651c0,-1.529 0.099,-3.015 0.297,-4.459c0.367,-2.491 1.328,-4.981 2.883,-7.472c1.639,-2.633 3.922,-4.784 6.847,-6.454c2.925,-1.67 6.296,-2.59 10.112,-2.76Z" style="fill-rule:nonzero;"/><path d="M381.362,68.933l-11.659,4.289c-0.905,0.311 -1.654,0.467 -2.247,0.467l-1.739,-0c-4.013,-0.198 -7.476,-1.84 -10.387,-4.925c-2.911,-3.086 -4.565,-6.879 -4.96,-11.38c-0.113,-1.189 -0.17,-2.335 -0.17,-3.439c0,-1.472 0.099,-2.901 0.297,-4.288c0.339,-2.406 1.272,-4.813 2.798,-7.219c0.735,-1.245 1.993,-2.547 3.773,-3.906c0.622,-0.424 1.315,-0.807 2.078,-1.146c2.261,-0.85 4.529,-1.699 6.804,-2.548c2.276,-0.849 4.558,-1.698 6.848,-2.547c0.48,-0.17 0.932,-0.255 1.356,-0.255l0.212,-0c1.809,0.085 4,0.538 6.572,1.358c0.226,0.085 0.367,0.142 0.424,0.17c0.622,0.255 1.385,0.538 2.289,0.849c0.368,0.114 0.707,0.17 1.018,0.17c0.452,0 0.848,-0.127 1.187,-0.382c0.593,-0.509 1.017,-0.934 1.272,-1.274c0.141,-0.198 0.325,-0.297 0.551,-0.297c0.141,0 0.282,0.028 0.424,0.085c0.622,0.227 0.933,0.51 0.933,0.849l-0,32.864c-0,1.84 0.706,3.008 2.119,3.503c1.414,0.496 2.12,1.097 2.12,1.805c0,0.594 -0.297,0.891 -0.89,0.891l-10.303,0c-0.48,0 -0.72,-0.184 -0.72,-0.552l-0,-3.142Zm-0,-28.957c-1.159,-1.076 -2.685,-2.074 -4.579,-2.994c-1.894,-0.92 -3.576,-1.408 -5.045,-1.465l-0.17,0c-0.565,0 -1.131,0.114 -1.696,0.34c-1.017,0.368 -2.028,0.743 -3.031,1.125c-1.004,0.382 -2.014,0.758 -3.032,1.126c-0.706,0.283 -1.272,0.651 -1.695,1.103c-1.753,1.869 -2.926,4.133 -3.519,6.794c-0.481,2.01 -0.721,4.005 -0.721,5.987c-0,0.623 0.028,1.26 0.085,1.911c0.311,4.076 1.413,7.388 3.307,9.935c1.893,2.633 4.268,4.345 7.122,5.138c1.074,0.311 2.163,0.467 3.265,0.467c0.339,-0 0.692,-0.014 1.06,-0.043c0.622,-0.056 1.356,-0.24 2.204,-0.552c0.65,-0.226 1.668,-0.601 3.053,-1.125c1.385,-0.523 2.515,-0.955 3.392,-1.295l-0,-26.452Z" style="fill-rule:nonzero;"/><path d="M215.463,157.25c2.289,-0.142 4.487,-0.743 6.592,-1.805c2.106,-1.061 3.795,-2.611 5.067,-4.649c1.328,-2.123 1.993,-4.685 1.993,-7.685l-0,-0.467c-0.085,-3.199 -1.301,-5.648 -3.647,-7.346c-1.074,-0.793 -2.374,-1.415 -3.9,-1.868c-2.996,-0.821 -6.056,-1.401 -9.179,-1.741c-3.123,-0.34 -6.084,-1.189 -8.882,-2.548c-2.516,-1.188 -4.395,-2.936 -5.639,-5.243c-1.244,-2.307 -1.865,-4.82 -1.865,-7.537c-0,-5.322 1.851,-9.667 5.554,-13.035c3.787,-3.51 8.564,-5.265 14.33,-5.265l1.272,-0c6.303,0.283 11.659,1.854 16.068,4.713l-1.017,8.916c-0.057,0.51 -0.326,0.765 -0.806,0.765l-0.17,-0c-0.367,-0.029 -0.72,-0.425 -1.06,-1.189c-1.215,-2.548 -2.981,-4.72 -5.299,-6.518c-2.318,-1.797 -4.819,-2.753 -7.504,-2.866l-0.679,0c-2.6,0 -4.918,0.467 -6.953,1.401c-1.328,0.68 -2.388,1.43 -3.18,2.251c-0.734,0.792 -1.385,1.769 -1.95,2.929c-0.452,0.935 -0.805,2.024 -1.06,3.27c-0.198,0.906 -0.297,1.769 -0.297,2.59c0,1.104 0.17,2.123 0.509,3.057c0.594,1.897 1.611,3.354 3.053,4.373c1.102,0.821 2.303,1.387 3.604,1.699c0.706,0.198 1.568,0.389 2.586,0.573c1.017,0.184 2.077,0.361 3.18,0.531c1.611,0.254 3.314,0.516 5.108,0.785c1.795,0.269 3.54,0.658 5.236,1.168c2.827,0.906 4.933,2.109 6.317,3.609c1.018,1.161 1.852,2.434 2.502,3.821c0.763,1.869 1.145,3.921 1.145,6.157c-0,6.058 -2.459,11.096 -7.377,15.116c-2.544,2.094 -5.357,3.637 -8.437,4.628c-2.488,0.792 -5.145,1.245 -7.971,1.359c-0.622,0.028 -1.23,0.042 -1.823,0.042c-3.929,0 -7.688,-0.552 -11.278,-1.656l-4.027,-11.209c-0.057,-0.142 -0.085,-0.283 -0.085,-0.425c-0,-0.283 0.099,-0.566 0.297,-0.849c0.226,-0.368 0.523,-0.552 0.89,-0.552c0.339,0.085 0.692,0.495 1.06,1.231c1.809,3.935 4.084,6.567 6.826,7.898c2.261,1.104 5.13,1.656 8.606,1.656c0.735,-0 1.498,-0.029 2.29,-0.085Z" style="fill-rule:nonzero;"/><path d="M247.133,123.707c-1.074,0.028 -2.685,0.099 -4.833,0.212l-0.212,-0c-0.537,-0 -0.82,-0.283 -0.848,-0.849l0,-0.085c0,-0.453 0.269,-0.807 0.806,-1.062c0.565,-0.255 1.738,-0.863 3.519,-1.826c0.424,-0.226 0.833,-0.424 1.229,-0.594c0.085,-0.028 0.198,-0.042 0.339,-0.042l0,-7.261c0,-1.415 0.29,-2.399 0.869,-2.951c0.58,-0.552 1.915,-1.323 4.007,-2.314c0.763,-0.368 1.371,-0.552 1.823,-0.552c0.65,-0 0.975,0.368 0.975,1.104l0,11.846l10.091,-0.212l0.042,-0c0.424,-0 0.636,0.368 0.636,1.104c-0,0.396 -0.057,0.877 -0.17,1.443c-0.282,1.331 -0.918,1.996 -1.908,1.996l-8.691,-0.042l0,26.622c0,2.576 0.897,4.501 2.692,5.774c1.795,1.274 3.328,1.996 4.6,2.166l0,1.359c-4.211,-0 -7.758,-0.397 -10.641,-1.189c-2.883,-0.793 -4.325,-3.921 -4.325,-9.384l0,-25.263Z" style="fill-rule:nonzero;"/><path d="M301.062,155.891l-11.659,4.289c-0.905,0.311 -1.654,0.467 -2.247,0.467l-1.738,-0c-4.014,-0.199 -7.476,-1.84 -10.388,-4.926c-2.911,-3.085 -4.564,-6.878 -4.96,-11.379c-0.113,-1.189 -0.17,-2.335 -0.17,-3.439c0,-1.472 0.099,-2.902 0.297,-4.289c0.339,-2.406 1.272,-4.812 2.798,-7.218c0.735,-1.245 1.993,-2.547 3.774,-3.906c0.621,-0.425 1.314,-0.807 2.077,-1.147c2.261,-0.849 4.529,-1.698 6.805,-2.547c2.275,-0.849 4.557,-1.699 6.847,-2.548c0.48,-0.17 0.933,-0.254 1.357,-0.254l0.212,-0c1.808,0.084 3.999,0.537 6.571,1.358c0.226,0.085 0.368,0.142 0.424,0.17c0.622,0.255 1.385,0.538 2.289,0.849c0.368,0.113 0.707,0.17 1.018,0.17c0.452,0 0.848,-0.127 1.187,-0.382c0.594,-0.51 1.018,-0.934 1.272,-1.274c0.141,-0.198 0.325,-0.297 0.551,-0.297c0.142,-0 0.283,0.028 0.424,0.085c0.622,0.226 0.933,0.509 0.933,0.849l-0,32.864c-0,1.84 0.706,3.008 2.12,3.503c1.413,0.495 2.12,1.097 2.12,1.804c-0,0.595 -0.297,0.892 -0.891,0.892l-10.302,0c-0.481,0 -0.721,-0.184 -0.721,-0.552l0,-3.142Zm0,-28.958c-1.159,-1.075 -2.685,-2.073 -4.579,-2.993c-1.894,-0.92 -3.575,-1.408 -5.045,-1.465l-0.17,0c-0.565,0 -1.13,0.113 -1.696,0.34c-1.017,0.368 -2.027,0.743 -3.031,1.125c-1.003,0.382 -2.014,0.757 -3.031,1.125c-0.707,0.283 -1.272,0.651 -1.696,1.104c-1.753,1.868 -2.926,4.133 -3.519,6.794c-0.481,2.01 -0.721,4.005 -0.721,5.987c0,0.622 0.028,1.259 0.085,1.91c0.311,4.076 1.413,7.388 3.307,9.936c1.894,2.632 4.268,4.345 7.123,5.138c1.074,0.311 2.162,0.467 3.264,0.467c0.339,-0 0.693,-0.015 1.06,-0.043c0.622,-0.056 1.357,-0.24 2.205,-0.552c0.65,-0.226 1.667,-0.601 3.052,-1.125c1.385,-0.524 2.516,-0.955 3.392,-1.295l0,-26.453Z" style="fill-rule:nonzero;"/><path d="M333.326,134.322l0,19.064c0,1.84 0.7,3.008 2.099,3.503c1.399,0.495 2.098,1.097 2.098,1.804c0,0.595 -0.282,0.892 -0.848,0.892l-14.372,0c-0.594,0 -0.89,-0.297 -0.89,-0.892c-0,-0.707 0.706,-1.309 2.119,-1.804c1.414,-0.495 2.12,-1.663 2.12,-3.503l0,-27.174c0,-1.784 -0.706,-2.93 -2.12,-3.44c-1.413,-0.509 -2.119,-1.132 -2.119,-1.868c-0,-0.594 0.296,-0.891 0.89,-0.891c1.865,-0.085 3.71,-0.376 5.533,-0.871c1.823,-0.495 3.653,-1.054 5.49,-1.677l0,5.605l5.893,-2.251c2.177,-0.821 3.872,-1.429 5.088,-1.825c0.367,-0.114 0.805,-0.17 1.314,-0.17c1.046,-0 2.374,0.283 3.985,0.849l-0.932,10.657l-1.951,0c-1.102,-4.132 -3.222,-6.199 -6.359,-6.199c-0.311,0 -0.622,0.014 -0.933,0.043c-2.148,0.254 -3.681,1.351 -4.6,3.29c-0.918,1.939 -1.42,4.225 -1.505,6.858Z" style="fill-rule:nonzero;"/><path d="M364.276,100.141c3.081,0 4.621,1.557 4.621,4.671c0,3.142 -1.54,4.713 -4.621,4.713c-3.081,-0 -4.621,-1.571 -4.621,-4.713c-0,-3.114 1.54,-4.671 4.621,-4.671Zm3.815,53.245c0,1.84 0.707,3.008 2.12,3.503c1.414,0.495 2.12,1.097 2.12,1.804c0,0.595 -0.282,0.892 -0.848,0.892l-14.372,0c-0.594,0 -0.891,-0.297 -0.891,-0.892c0,-0.707 0.707,-1.309 2.12,-1.804c1.413,-0.495 2.12,-1.663 2.12,-3.503l0,-27.174c0,-1.784 -0.707,-2.93 -2.12,-3.44c-1.413,-0.509 -2.12,-1.132 -2.12,-1.868c0,-0.594 0.297,-0.891 0.891,-0.891c1.865,-0.085 3.709,-0.376 5.532,-0.871c1.824,-0.495 3.64,-1.054 5.448,-1.677l0,35.921Z" style="fill-rule:nonzero;"/><path d="M391.961,153.386c-0,1.84 0.707,3.008 2.12,3.503c1.413,0.495 2.12,1.097 2.12,1.804c-0,0.595 -0.283,0.892 -0.848,0.892l-14.373,0c-0.593,0 -0.89,-0.297 -0.89,-0.892c-0,-0.707 0.706,-1.309 2.12,-1.804c1.413,-0.495 2.119,-1.663 2.119,-3.503l0,-47.173c0,-1.812 -0.706,-2.972 -2.119,-3.482c-1.414,-0.509 -2.12,-1.132 -2.12,-1.868c-0,-0.594 0.297,-0.892 0.89,-0.892c1.866,-0.084 3.71,-0.367 5.533,-0.849c1.823,-0.481 3.639,-1.033 5.448,-1.656l-0,25.901c1.554,-0.595 2.925,-1.118 4.112,-1.571c1.188,-0.453 2.318,-0.863 3.392,-1.231c2.601,-0.906 5.3,-1.501 8.098,-1.784c0.339,-0.028 0.692,-0.042 1.06,-0.042c2.374,-0 4.635,0.806 6.783,2.42c3.42,2.632 5.13,8.28 5.13,16.941l0,15.286c0,1.84 0.707,3.008 2.12,3.503c1.413,0.495 2.12,1.097 2.12,1.804c0,0.595 -0.283,0.892 -0.848,0.892l-10.302,0c-0.481,0 -0.721,-0.184 -0.721,-0.552l-0,-20.933c-0,-6.199 -1.286,-10.558 -3.858,-13.077c-1.639,-1.614 -3.646,-2.42 -6.021,-2.42c-1.356,-0 -2.84,0.269 -4.451,0.806c-0.622,0.227 -1.406,0.517 -2.353,0.871c-0.947,0.354 -1.76,0.658 -2.438,0.913c-0.678,0.254 -1.286,0.481 -1.823,0.679l-0,27.514Z" style="fill-rule:nonzero;"/><path d="M194.816,243.953l41.209,-53.117l-25.777,0.042c-1.696,0 -3.067,0.538 -4.113,1.613c-1.045,1.076 -2.275,2.591 -3.688,4.544c-0.791,1.132 -1.328,1.698 -1.611,1.698c-0.594,0 -0.89,-0.297 -0.89,-0.892l-0,-7.855c-0,-1.528 0.268,-2.455 0.805,-2.781c0.537,-0.325 1.88,-0.488 4.028,-0.488l39.174,-0c2.318,-0 3.731,0.241 4.24,0.722c0.198,0.198 0.297,0.453 0.297,0.764c-0,0.481 -0.212,1.076 -0.636,1.783l-41.634,52.396l33.112,-0.043c1.696,0 3.067,-0.53 4.113,-1.592c1.045,-1.061 2.289,-2.583 3.731,-4.564c0.791,-1.104 1.314,-1.656 1.568,-1.656c0.594,-0 0.891,0.297 0.891,0.891l-0,7.855c-0,1.642 -0.219,2.598 -0.657,2.866c-0.439,0.269 -1.816,0.404 -4.134,0.404l-45.407,-0c-2.374,-0 -3.971,-0.128 -4.791,-0.382c-0.396,-0.114 -0.594,-0.34 -0.594,-0.68c0,-0.368 0.255,-0.877 0.764,-1.528Z" style="fill-rule:nonzero;"/><path d="M284.485,242.849l-11.659,4.288c-0.905,0.312 -1.654,0.467 -2.247,0.467l-1.739,0c-4.013,-0.198 -7.476,-1.84 -10.387,-4.925c-2.911,-3.085 -4.565,-6.878 -4.96,-11.379c-0.113,-1.189 -0.17,-2.336 -0.17,-3.439c0,-1.472 0.099,-2.902 0.297,-4.289c0.339,-2.406 1.272,-4.812 2.798,-7.218c0.735,-1.246 1.993,-2.548 3.773,-3.906c0.622,-0.425 1.315,-0.807 2.078,-1.147c2.261,-0.849 4.529,-1.698 6.805,-2.547c2.275,-0.85 4.557,-1.699 6.847,-2.548c0.48,-0.17 0.932,-0.255 1.356,-0.255l0.212,0c1.809,0.085 4,0.538 6.572,1.359c0.226,0.085 0.367,0.142 0.424,0.17c0.622,0.255 1.385,0.538 2.289,0.849c0.368,0.113 0.707,0.17 1.018,0.17c0.452,-0 0.848,-0.128 1.187,-0.382c0.593,-0.51 1.017,-0.934 1.272,-1.274c0.141,-0.198 0.325,-0.297 0.551,-0.297c0.141,-0 0.283,0.028 0.424,0.085c0.622,0.226 0.933,0.509 0.933,0.849l-0,32.864c-0,1.84 0.706,3.007 2.12,3.503c1.413,0.495 2.119,1.097 2.119,1.804c0,0.595 -0.296,0.892 -0.89,0.892l-10.302,-0c-0.481,-0 -0.721,-0.184 -0.721,-0.552l-0,-3.142Zm-0,-28.958c-1.159,-1.075 -2.685,-2.073 -4.579,-2.993c-1.894,-0.92 -3.575,-1.408 -5.045,-1.465l-0.17,-0c-0.565,-0 -1.13,0.113 -1.696,0.34c-1.017,0.368 -2.028,0.743 -3.031,1.125c-1.003,0.382 -2.014,0.757 -3.031,1.125c-0.707,0.283 -1.272,0.651 -1.696,1.104c-1.753,1.868 -2.926,4.133 -3.519,6.794c-0.481,2.009 -0.721,4.005 -0.721,5.986c0,0.623 0.028,1.26 0.085,1.911c0.311,4.076 1.413,7.388 3.307,9.936c1.893,2.632 4.268,4.345 7.122,5.137c1.074,0.312 2.163,0.467 3.265,0.467c0.339,0 0.692,-0.014 1.06,-0.042c0.622,-0.057 1.357,-0.241 2.205,-0.552c0.65,-0.227 1.667,-0.602 3.052,-1.125c1.385,-0.524 2.516,-0.956 3.392,-1.295l-0,-26.453Z" style="fill-rule:nonzero;"/><path d="M315.011,210.325c1.554,-0.595 2.925,-1.118 4.112,-1.571c1.187,-0.453 2.318,-0.864 3.392,-1.232c2.6,-0.906 5.299,-1.5 8.098,-1.783c0.339,-0.028 0.692,-0.043 1.06,-0.043c2.374,0 4.635,0.807 6.783,2.421c3.42,2.632 5.13,8.279 5.13,16.941l0,15.286c0,1.84 0.707,3.007 2.12,3.503c1.413,0.495 2.12,1.097 2.12,1.804c-0,0.595 -0.283,0.892 -0.848,0.892l-10.303,-0c-0.48,-0 -0.72,-0.184 -0.72,-0.552l-0,-20.933c-0,-6.199 -1.286,-10.558 -3.858,-13.077c-1.64,-1.614 -3.647,-2.421 -6.021,-2.421c-1.357,0 -2.84,0.269 -4.451,0.807c-0.622,0.227 -1.407,0.517 -2.354,0.871c-0.946,0.353 -1.759,0.658 -2.437,0.912c-0.679,0.255 -1.286,0.482 -1.823,0.68l-0,27.514c-0,1.84 0.706,3.007 2.119,3.503c1.414,0.495 2.12,1.097 2.12,1.804c0,0.595 -0.282,0.892 -0.848,0.892l-14.372,-0c-0.594,-0 -0.891,-0.297 -0.891,-0.892c0,-0.707 0.707,-1.309 2.12,-1.804c1.414,-0.496 2.12,-1.663 2.12,-3.503l0,-27.175c0,-1.783 -0.706,-2.929 -2.12,-3.439c-1.413,-0.509 -2.12,-1.132 -2.12,-1.868c0,-0.594 0.297,-0.892 0.891,-0.892c1.865,-0.085 3.71,-0.375 5.533,-0.87c1.823,-0.496 3.639,-1.055 5.448,-1.677l-0,5.902Z" style="fill-rule:nonzero;"/><path d="M383.948,242.849l-11.659,4.288c-0.905,0.312 -1.654,0.467 -2.247,0.467l-1.739,0c-4.013,-0.198 -7.476,-1.84 -10.387,-4.925c-2.911,-3.085 -4.564,-6.878 -4.96,-11.379c-0.113,-1.189 -0.17,-2.336 -0.17,-3.439c0,-1.472 0.099,-2.902 0.297,-4.289c0.339,-2.406 1.272,-4.812 2.798,-7.218c0.735,-1.246 1.993,-2.548 3.774,-3.906c0.621,-0.425 1.314,-0.807 2.077,-1.147c2.261,-0.849 4.529,-1.698 6.805,-2.547c2.275,-0.85 4.557,-1.699 6.847,-2.548c0.48,-0.17 0.932,-0.255 1.356,-0.255l0.212,0c1.809,0.085 4,0.538 6.572,1.359c0.226,0.085 0.367,0.142 0.424,0.17c0.622,0.255 1.385,0.538 2.289,0.849c0.368,0.113 0.707,0.17 1.018,0.17c0.452,-0 0.848,-0.128 1.187,-0.382c0.594,-0.51 1.018,-0.934 1.272,-1.274c0.141,-0.198 0.325,-0.297 0.551,-0.297c0.141,-0 0.283,0.028 0.424,0.085c0.622,0.226 0.933,0.509 0.933,0.849l-0,32.864c-0,1.84 0.706,3.007 2.12,3.503c1.413,0.495 2.119,1.097 2.119,1.804c0,0.595 -0.296,0.892 -0.89,0.892l-10.302,-0c-0.481,-0 -0.721,-0.184 -0.721,-0.552l-0,-3.142Zm-0,-28.958c-1.159,-1.075 -2.685,-2.073 -4.579,-2.993c-1.894,-0.92 -3.575,-1.408 -5.045,-1.465l-0.17,-0c-0.565,-0 -1.13,0.113 -1.696,0.34c-1.017,0.368 -2.028,0.743 -3.031,1.125c-1.003,0.382 -2.014,0.757 -3.031,1.125c-0.707,0.283 -1.272,0.651 -1.696,1.104c-1.753,1.868 -2.926,4.133 -3.519,6.794c-0.481,2.009 -0.721,4.005 -0.721,5.986c0,0.623 0.028,1.26 0.085,1.911c0.311,4.076 1.413,7.388 3.307,9.936c1.894,2.632 4.268,4.345 7.122,5.137c1.075,0.312 2.163,0.467 3.265,0.467c0.339,0 0.693,-0.014 1.06,-0.042c0.622,-0.057 1.357,-0.241 2.205,-0.552c0.65,-0.227 1.667,-0.602 3.052,-1.125c1.385,-0.524 2.516,-0.956 3.392,-1.295l-0,-26.453Z" style="fill-rule:nonzero;"/><path d="M407.902,210.664c-1.074,0.029 -2.685,0.099 -4.833,0.213l-0.212,-0c-0.537,-0 -0.82,-0.283 -0.848,-0.85l-0,-0.085c-0,-0.452 0.268,-0.806 0.806,-1.061c0.565,-0.255 1.738,-0.863 3.518,-1.826c0.424,-0.226 0.834,-0.424 1.23,-0.594c0.085,-0.029 0.198,-0.043 0.339,-0.043l0,-7.26c0,-1.416 0.29,-2.399 0.869,-2.951c0.58,-0.552 1.915,-1.324 4.007,-2.314c0.763,-0.368 1.371,-0.552 1.823,-0.552c0.65,-0 0.975,0.368 0.975,1.104l-0,11.846l10.09,-0.212l0.043,-0c0.424,-0 0.636,0.368 0.636,1.104c-0,0.396 -0.057,0.877 -0.17,1.443c-0.282,1.331 -0.918,1.996 -1.908,1.996l-8.691,-0.043l-0,26.623c-0,2.576 0.897,4.5 2.692,5.774c1.795,1.274 3.328,1.996 4.6,2.166l0,1.358c-4.211,0 -7.758,-0.396 -10.641,-1.188c-2.883,-0.793 -4.325,-3.921 -4.325,-9.384l0,-25.264Z" style="fill-rule:nonzero;"/><path d="M461.831,242.849l-11.659,4.288c-0.905,0.312 -1.654,0.467 -2.247,0.467l-1.738,0c-4.014,-0.198 -7.476,-1.84 -10.388,-4.925c-2.911,-3.085 -4.564,-6.878 -4.96,-11.379c-0.113,-1.189 -0.17,-2.336 -0.17,-3.439c0,-1.472 0.099,-2.902 0.297,-4.289c0.339,-2.406 1.272,-4.812 2.798,-7.218c0.735,-1.246 1.993,-2.548 3.774,-3.906c0.621,-0.425 1.314,-0.807 2.077,-1.147c2.261,-0.849 4.529,-1.698 6.805,-2.547c2.275,-0.85 4.557,-1.699 6.847,-2.548c0.48,-0.17 0.933,-0.255 1.356,-0.255l0.212,0c1.809,0.085 4,0.538 6.572,1.359c0.226,0.085 0.367,0.142 0.424,0.17c0.622,0.255 1.385,0.538 2.289,0.849c0.368,0.113 0.707,0.17 1.018,0.17c0.452,-0 0.848,-0.128 1.187,-0.382c0.594,-0.51 1.018,-0.934 1.272,-1.274c0.141,-0.198 0.325,-0.297 0.551,-0.297c0.141,-0 0.283,0.028 0.424,0.085c0.622,0.226 0.933,0.509 0.933,0.849l-0,32.864c-0,1.84 0.706,3.007 2.12,3.503c1.413,0.495 2.119,1.097 2.119,1.804c0,0.595 -0.296,0.892 -0.89,0.892l-10.302,-0c-0.481,-0 -0.721,-0.184 -0.721,-0.552l-0,-3.142Zm-0,-28.958c-1.159,-1.075 -2.685,-2.073 -4.579,-2.993c-1.894,-0.92 -3.575,-1.408 -5.045,-1.465l-0.17,-0c-0.565,-0 -1.13,0.113 -1.696,0.34c-1.017,0.368 -2.028,0.743 -3.031,1.125c-1.003,0.382 -2.014,0.757 -3.031,1.125c-0.707,0.283 -1.272,0.651 -1.696,1.104c-1.753,1.868 -2.926,4.133 -3.519,6.794c-0.481,2.009 -0.721,4.005 -0.721,5.986c0,0.623 0.028,1.26 0.085,1.911c0.311,4.076 1.413,7.388 3.307,9.936c1.894,2.632 4.268,4.345 7.123,5.137c1.074,0.312 2.162,0.467 3.264,0.467c0.339,0 0.693,-0.014 1.06,-0.042c0.622,-0.057 1.357,-0.241 2.205,-0.552c0.65,-0.227 1.667,-0.602 3.052,-1.125c1.385,-0.524 2.516,-0.956 3.392,-1.295l-0,-26.453Z" style="fill-rule:nonzero;"/></g><g id="kilincs"><path d="M94.095,129.997l0,-0.051c0,-20.578 -0.002,-45.207 -0.002,-62.173c0,-10.489 -3.822,-16.03 -5.659,-26.357c-1.897,-10.662 4.468,-21.004 12.998,-18.538c1.971,-19.933 15.325,-22.843 22.752,-22.878c7.428,0.035 20.782,2.945 22.753,22.878c8.529,-2.466 14.895,7.876 12.998,18.538c-1.837,10.327 -5.66,15.868 -5.66,26.357c0,16.966 -0.002,41.595 -0.002,62.173l0,0.051c0,20.578 0.002,45.207 0.002,62.173c0,10.489 3.823,16.03 5.66,26.357c1.897,10.662 -4.469,21.004 -12.998,18.538c-1.971,19.933 -15.325,22.843 -22.753,22.878c-7.427,-0.035 -20.781,-2.945 -22.752,-22.878c-8.53,2.466 -14.895,-7.876 -12.998,-18.538c1.837,-10.327 5.659,-15.868 5.659,-26.357c0,-16.966 0.002,-41.595 0.002,-62.173Zm25.226,33.598l-0,15.832c-0,2.664 2.163,4.827 4.827,4.827c2.664,0 4.827,-2.163 4.827,-4.827l0,-15.797c3.783,-1.797 6.402,-5.653 6.402,-10.117c-0,-6.177 -5.015,-11.193 -11.193,-11.193c-6.177,0 -11.192,5.016 -11.192,11.193c-0,4.435 2.585,8.271 6.329,10.082Z"/><path d="M120.533,90.477c5.591,0.036 10.102,4.604 10.066,10.195c-0.036,5.591 -4.604,10.102 -10.195,10.066c-1.568,-0.968 -2.455,-2.109 -4.83,-3.043c-1.696,-0.666 -3.355,-1.105 -5.371,-1.402c-1.594,-0.234 -3.24,-0.2 -4.884,-0.205c-4.347,-0.014 -8.632,0.207 -12.053,-0.304c-4.539,-0.616 -8.34,-2.251 -11.817,-4.267c-7.013,-4.065 -12.133,-10.54 -19.432,-13.462c-3.437,-1.348 -7.227,-1.973 -10.999,-2.304c-6.701,-0.587 -13.319,0.139 -18.246,0.7c-3.392,0.409 -7.781,1.167 -11.584,1.922c-2.655,0.528 -4.888,1.106 -5.787,1.515c-5.249,1.928 -11.075,-0.768 -13.002,-6.017c-1.928,-5.249 0.768,-11.075 6.017,-13.002c1.427,-0.406 4.455,-1.001 8.242,-1.241c4.736,-0.3 10.822,-0.489 15.304,-0.373c5.786,0.112 13.528,0.444 21.209,2.072c4.971,1.053 9.917,2.477 14.304,4.781c7.574,3.907 12.544,11.3 19.757,16.317c2.224,1.546 4.704,2.834 7.727,3.46c2.842,0.547 6.439,0.863 10.069,0.63c1.561,-0.1 3.127,-0.238 4.611,-0.624c1.97,-0.513 3.561,-1.158 5.172,-2.006c2.634,-1.389 3.879,-2.302 5.722,-3.408Z"/><circle cx="121.158" cy="100.767" r="12.223"/></g></g></svg>