<?xml version="1.0" encoding="UTF-8" standalone="no"?><!DOCTYPE svg PUBLIC "-//W3C//DTD SVG 1.1//EN" "http://www.w3.org/Graphics/SVG/1.1/DTD/svg11.dtd"><svg width="100%" height="100%" viewBox="0 0 828 318" version="1.1" xmlns="http://www.w3.org/2000/svg" xmlns:xlink="http://www.w3.org/1999/xlink" xml:space="preserve" xmlns:serif="http://www.serif.com/" style="fill-rule:evenodd;clip-rule:evenodd;stroke-linejoin:round;stroke-miterlimit:2;"><g id="main-logo" serif:id="main logo"><g><path d="M300.494,84.869c0.966,0.794 2.224,1.26 3.776,1.398c0.965,0.104 1.448,0.466 1.448,1.088l0,0.155c-0.103,0.725 -0.465,1.088 -1.086,1.088l-13.809,-0c-0.31,-0 -1.483,-1.347 -3.517,-4.04c-2.034,-2.694 -4.396,-5.905 -7.086,-9.634c-2.689,-3.73 -5.448,-7.545 -8.275,-11.447c-2.827,-3.902 -5.189,-7.045 -7.085,-9.427l-8.276,-0l0,26.986c0,2.244 0.862,3.669 2.586,4.273c1.724,0.604 2.586,1.338 2.586,2.201c0,0.725 -0.344,1.088 -1.034,1.088l-17.533,-0c-0.724,-0 -1.086,-0.363 -1.086,-1.088c-0,-0.863 0.862,-1.597 2.586,-2.201c1.724,-0.604 2.586,-2.029 2.586,-4.273l-0,-57.546c-0,-2.21 -0.862,-3.626 -2.586,-4.248c-1.724,-0.621 -2.586,-1.381 -2.586,-2.279c-0,-0.725 0.362,-1.088 1.086,-1.088l30.515,0c3.551,0 7.258,0.631 11.119,1.891c3.862,1.26 6.845,3.703 8.948,7.329c1.655,2.935 2.482,6.458 2.482,10.567c-0.069,3.902 -1.189,7.407 -3.361,10.514c-1.724,2.452 -4.121,4.325 -7.189,5.62c-3.069,1.295 -5.983,2.029 -8.741,2.202l23.532,30.871Zm-43.91,-64.694l0,30.249l11.999,-0c2.379,-0 4.793,-0.346 7.241,-1.036c2.448,-0.691 4.551,-1.917 6.31,-3.678c2.758,-2.659 4.138,-6.181 4.138,-10.566c-0,-4.213 -1.431,-7.735 -4.293,-10.567c-3.069,-2.935 -7.189,-4.402 -12.361,-4.402l-13.034,-0Z" style="fill-rule:nonzero;"/><path d="M322.269,29.032c-0.104,0.034 -0.225,0.052 -0.363,0.052c-0.62,-0 -0.93,-0.294 -0.93,-0.881c-0,-0.276 0.12,-0.535 0.362,-0.777l19.394,-13.363c0.621,-0.449 1.328,-0.674 2.121,-0.674c2.552,0 3.827,1.278 3.827,3.833c0,1.796 -0.81,2.987 -2.431,3.574l-21.98,8.236Zm-12.672,31.026c0.966,-6.388 3.508,-11.499 7.629,-15.332c4.12,-3.833 9.542,-5.784 16.266,-5.853l0.207,0c6.792,0 11.981,1.934 15.567,5.801c3.586,3.937 5.379,9.065 5.379,15.384c-0.034,1.381 -0.086,2.357 -0.155,2.926c-0.069,0.57 -0.776,0.855 -2.121,0.855l-32.945,0c0.103,5.594 1.517,10.23 4.241,13.908c2.724,3.677 6.155,5.93 10.292,6.759c1.207,0.276 2.431,0.414 3.672,0.414c3.276,0 6.672,-0.949 10.189,-2.848c1.965,-1.071 3.293,-1.606 3.983,-1.606c0.172,-0 0.31,0.034 0.413,0.103c0.104,0.104 0.155,0.259 0.155,0.467c0,0.449 -0.224,1.087 -0.672,1.916c-0.414,0.829 -0.75,1.381 -1.008,1.658c-0.259,0.276 -0.492,0.518 -0.699,0.725c-3.758,3.246 -8.861,4.869 -15.309,4.869c-9.033,-0.069 -15.809,-2.97 -20.326,-8.702c-3.482,-4.42 -5.223,-9.669 -5.223,-15.746c-0,-1.831 0.155,-3.73 0.465,-5.698Zm9.827,-0l27.256,-0c0,-4.213 -0.948,-8.08 -2.844,-11.602c-1.828,-3.35 -5.172,-5.025 -10.034,-5.025l-0.569,0c-4.862,0.138 -8.344,1.899 -10.447,5.283c-2.104,3.385 -3.224,7.166 -3.362,11.344Z" style="fill-rule:nonzero;"/><path d="M399.072,78.29l0,-29.524c-1.413,-1.312 -3.275,-2.529 -5.585,-3.651c-2.31,-1.123 -4.362,-1.718 -6.155,-1.787l-0.207,-0c-0.689,-0 -1.379,0.138 -2.069,0.414c-1.241,0.449 -2.474,0.906 -3.698,1.373c-1.224,0.466 -2.456,0.923 -3.698,1.372c-0.862,0.346 -1.551,0.794 -2.068,1.347c-2.138,2.279 -3.569,5.041 -4.293,8.287c-0.586,2.452 -0.879,4.887 -0.879,7.304c-0,0.759 0.034,1.536 0.103,2.331c0.379,4.972 1.724,9.012 4.034,12.12c2.31,3.211 5.207,5.301 8.689,6.267c1.31,0.38 2.638,0.57 3.983,0.57c0.413,0 0.844,-0.017 1.293,-0.052c0.758,-0.069 1.655,-0.293 2.689,-0.673c0.793,-0.276 2.026,-0.725 3.698,-1.347c1.672,-0.621 3.043,-1.139 4.112,-1.554l-0,-2.797l0.051,0Zm-0.051,5.802l-14.172,5.231c-1.103,0.38 -2.017,0.57 -2.741,0.57l-2.12,-0c-4.896,-0.242 -9.12,-2.245 -12.672,-6.009c-3.551,-3.763 -5.568,-8.391 -6.051,-13.881c-0.138,-1.45 -0.207,-2.849 -0.207,-4.196c0,-1.795 0.121,-3.539 0.362,-5.231c0.414,-2.935 1.552,-5.87 3.414,-8.806c0.896,-1.519 2.431,-3.107 4.603,-4.765c0.759,-0.518 1.603,-0.984 2.534,-1.398c2.759,-1.036 5.526,-2.072 8.301,-3.108c2.776,-1.036 5.56,-2.072 8.353,-3.108c0.586,-0.207 1.138,-0.311 1.655,-0.311l0.259,0c2.206,0.104 4.879,0.656 8.016,1.658c0.276,0.103 0.448,0.172 0.517,0.207c0.759,0.311 1.69,0.656 2.793,1.036c0.449,0.138 0.862,0.207 1.242,0.207c0.551,0 1.034,-0.155 1.448,-0.466c0.724,-0.622 1.241,-1.14 1.551,-1.554c0.173,-0.242 0.397,-0.363 0.673,-0.363c0.172,0 0.344,0.035 0.517,0.104c0.758,0.276 1.138,0.622 1.138,1.036l-0,56.976c-0,5.698 -0.811,9.255 -2.431,10.67c-1.621,1.416 -3.931,2.677 -6.931,3.782l-14.223,5.335c-1.103,0.379 -2.017,0.569 -2.741,0.569c-0.896,0 -1.603,-0.017 -2.12,-0.051c-4.862,-0.173 -9.086,-2.176 -12.672,-6.009c-1.861,-2.037 -3.344,-4.472 -4.447,-7.303c2.999,-1.174 6.068,-2.331 9.206,-3.471c0.62,1.762 1.448,3.35 2.482,4.766c2.345,3.177 5.241,5.266 8.689,6.267c1.31,0.345 2.603,0.518 3.879,0.518c0.483,0 0.948,-0.017 1.397,-0.052c0.758,-0.069 1.655,-0.276 2.689,-0.621c0.414,-0.173 0.948,-0.38 1.603,-0.622c0.655,-0.242 1.362,-0.5 2.121,-0.777c1.655,-0.828 2.758,-2.503 3.31,-5.024c0.552,-2.521 0.827,-4.196 0.827,-5.024l-0.051,-16.782Z" style="fill-rule:nonzero;"/><path d="M430.518,16.083c3.758,-0 5.638,1.899 5.638,5.697c-0,3.833 -1.88,5.75 -5.638,5.75c-3.758,-0 -5.637,-1.917 -5.637,-5.75c-0,-3.798 1.879,-5.697 5.637,-5.697Zm4.655,64.953c-0,2.244 0.862,3.669 2.586,4.273c1.724,0.604 2.586,1.338 2.586,2.201c-0,0.725 -0.345,1.088 -1.035,1.088l-17.533,-0c-0.724,-0 -1.086,-0.363 -1.086,-1.088c0,-0.863 0.862,-1.597 2.586,-2.201c1.724,-0.604 2.586,-2.029 2.586,-4.273l0,-33.15c0,-2.176 -0.862,-3.574 -2.586,-4.196c-1.724,-0.621 -2.586,-1.381 -2.586,-2.279c0,-0.725 0.362,-1.088 1.086,-1.088c2.276,-0.103 4.526,-0.457 6.75,-1.061c2.224,-0.605 4.439,-1.287 6.646,-2.046l-0,43.82Z" style="fill-rule:nonzero;"/><path d="M322.941,129.569l-0,57.546c-0,2.245 0.87,3.669 2.612,4.273c1.741,0.605 2.612,1.338 2.612,2.202c-0,0.725 -0.362,1.087 -1.087,1.087l-17.533,0c-0.724,0 -1.086,-0.362 -1.086,-1.087c0,-0.864 0.862,-1.597 2.586,-2.202c1.724,-0.604 2.586,-2.028 2.586,-4.273l0,-55.474l-29.842,64.59l-2.017,0l-29.532,-62.156l-0,53.04c-0,2.245 0.862,3.669 2.586,4.273c1.724,0.605 2.586,1.338 2.586,2.202c-0,0.725 -0.362,1.087 -1.086,1.087l-13.137,0c-0.724,0 -1.086,-0.362 -1.086,-1.087c-0,-0.864 0.862,-1.597 2.586,-2.202c1.724,-0.604 2.586,-2.028 2.586,-4.273l-0,-57.546c-0,-2.21 -0.862,-3.626 -2.586,-4.247c-1.724,-0.622 -2.586,-1.382 -2.586,-2.279c-0,-0.725 0.362,-1.088 1.086,-1.088l13.757,-0l28.291,58.116l27.412,-58.116l14.429,-0c0.725,-0 1.087,0.363 1.087,1.088c-0,0.897 -0.871,1.657 -2.612,2.279c-1.742,0.621 -2.612,2.037 -2.612,4.247Z" style="fill-rule:nonzero;"/><path d="M337.526,166.137c0.965,-6.388 3.508,-11.498 7.629,-15.331c4.12,-3.833 9.542,-5.784 16.265,-5.853l0.207,-0c6.793,-0 11.982,1.933 15.568,5.801c3.586,3.936 5.379,9.064 5.379,15.383c-0.035,1.382 -0.086,2.357 -0.155,2.927c-0.069,0.57 -0.776,0.855 -2.121,0.855l-32.945,-0c0.103,5.594 1.517,10.229 4.241,13.907c2.724,3.678 6.154,5.931 10.292,6.759c1.207,0.277 2.431,0.415 3.672,0.415c3.276,-0 6.672,-0.95 10.189,-2.849c1.965,-1.07 3.293,-1.606 3.982,-1.606c0.173,0 0.311,0.035 0.414,0.104c0.103,0.104 0.155,0.259 0.155,0.466c0,0.449 -0.224,1.088 -0.672,1.917c-0.414,0.828 -0.75,1.381 -1.009,1.657c-0.258,0.276 -0.491,0.518 -0.698,0.725c-3.758,3.246 -8.861,4.869 -15.309,4.869c-9.034,-0.069 -15.809,-2.97 -20.326,-8.702c-3.482,-4.42 -5.224,-9.668 -5.224,-15.746c0,-1.83 0.156,-3.729 0.466,-5.698Zm9.827,0l27.256,0c-0,-4.212 -0.948,-8.08 -2.845,-11.602c-1.827,-3.349 -5.172,-5.024 -10.033,-5.024l-0.569,-0c-4.862,0.138 -8.344,1.899 -10.448,5.283c-2.103,3.384 -3.223,7.165 -3.361,11.343Z" style="fill-rule:nonzero;"/><path d="M411.123,145.056c5.069,0.276 9.861,1.813 14.378,4.61l-1.086,9.065c-0.069,0.518 -0.345,0.777 -0.827,0.777l-0.156,-0c-0.413,-0.035 -0.793,-0.449 -1.137,-1.244c-1.242,-2.589 -3.052,-4.756 -5.431,-6.5c-2.379,-1.744 -4.948,-2.668 -7.706,-2.771l-0.207,-0c-2.138,-0 -4.224,0.535 -6.258,1.605c-2.138,1.105 -3.448,2.798 -3.931,5.077c-0.172,0.759 -0.258,1.45 -0.258,2.071c-0,2.176 0.965,3.73 2.896,4.662c2.448,1.243 5.292,2.227 8.534,2.953c4.447,1.001 8.49,2.348 12.128,4.04c3.638,1.692 5.629,5.231 5.974,10.618l-0,0.518c-0,2.555 -0.983,5.111 -2.949,7.666c-2.137,2.762 -5.223,4.851 -9.257,6.267c-2.517,0.829 -5.31,1.295 -8.379,1.399l-1.396,-0c-4.241,-0 -8.293,-0.553 -12.155,-1.658l-4.189,-11.395l0.155,-1.036c0.035,-0.518 0.345,-0.777 0.931,-0.777l0.104,0c0.344,0.069 0.707,0.484 1.086,1.243c1.586,3.419 3.525,5.845 5.818,7.278c2.293,1.433 5.198,2.201 8.715,2.305l0.621,-0c2.448,-0 5.137,-0.57 8.068,-1.71c3.172,-1.243 4.827,-3.487 4.965,-6.733l0,-0.311c0,-3.729 -1.758,-6.095 -5.275,-7.096c-3.655,-1.036 -6.862,-1.951 -9.62,-2.745c-3.414,-0.933 -6.62,-2.418 -9.62,-4.455c-2.965,-2.003 -4.448,-4.972 -4.448,-8.909l0,-0.259c0.034,-5.352 2.103,-9.168 6.206,-11.447c3.759,-2.106 7.914,-3.16 12.465,-3.16c0.414,0 0.827,0.018 1.241,0.052Z" style="fill-rule:nonzero;"/><path d="M442.207,150.909c-1.31,0.035 -3.276,0.121 -5.896,0.259l-0.259,0c-0.655,0 -1,-0.345 -1.034,-1.036l-0,-0.103c-0,-0.553 0.327,-0.984 0.982,-1.295c0.69,-0.311 2.121,-1.053 4.293,-2.227c0.517,-0.277 1.017,-0.518 1.5,-0.726c0.103,-0.034 0.241,-0.051 0.414,-0.051l-0,-8.858c-0,-1.726 0.353,-2.926 1.06,-3.599c0.707,-0.674 2.336,-1.615 4.888,-2.823c0.93,-0.449 1.672,-0.674 2.223,-0.674c0.794,0 1.19,0.449 1.19,1.347l0,14.451l12.309,-0.259l0.052,0c0.517,0 0.776,0.449 0.776,1.347c-0,0.483 -0.069,1.07 -0.207,1.761c-0.345,1.623 -1.121,2.434 -2.327,2.434l-10.603,-0.051l0,32.476c0,3.142 1.095,5.491 3.284,7.045c2.19,1.553 4.06,2.434 5.612,2.641l-0,1.658c-5.138,-0 -9.465,-0.484 -12.982,-1.451c-3.517,-0.967 -5.275,-4.782 -5.275,-11.447l-0,-30.819Z" style="fill-rule:nonzero;"/><path d="M470.446,166.137c0.965,-6.388 3.508,-11.498 7.628,-15.331c4.121,-3.833 9.543,-5.784 16.266,-5.853l0.207,-0c6.793,-0 11.982,1.933 15.568,5.801c3.586,3.936 5.379,9.064 5.379,15.383c-0.035,1.382 -0.086,2.357 -0.155,2.927c-0.069,0.57 -0.776,0.855 -2.121,0.855l-32.945,-0c0.103,5.594 1.517,10.229 4.241,13.907c2.723,3.678 6.154,5.931 10.292,6.759c1.207,0.277 2.431,0.415 3.672,0.415c3.275,-0 6.672,-0.95 10.189,-2.849c1.965,-1.07 3.293,-1.606 3.982,-1.606c0.173,0 0.31,0.035 0.414,0.104c0.103,0.104 0.155,0.259 0.155,0.466c0,0.449 -0.224,1.088 -0.672,1.917c-0.414,0.828 -0.75,1.381 -1.009,1.657c-0.258,0.276 -0.491,0.518 -0.698,0.725c-3.758,3.246 -8.861,4.869 -15.309,4.869c-9.034,-0.069 -15.809,-2.97 -20.326,-8.702c-3.482,-4.42 -5.224,-9.668 -5.224,-15.746c0,-1.83 0.155,-3.729 0.466,-5.698Zm9.827,0l27.256,0c-0,-4.212 -0.948,-8.08 -2.845,-11.602c-1.827,-3.349 -5.172,-5.024 -10.033,-5.024l-0.569,-0c-4.862,0.138 -8.344,1.899 -10.448,5.283c-2.103,3.384 -3.224,7.165 -3.361,11.343Z" style="fill-rule:nonzero;"/><path d="M539.543,163.858l0,23.257c0,2.245 0.854,3.669 2.561,4.273c1.706,0.605 2.56,1.338 2.56,2.202c-0,0.725 -0.345,1.087 -1.035,1.087l-17.533,0c-0.724,0 -1.086,-0.362 -1.086,-1.087c0,-0.864 0.862,-1.597 2.586,-2.202c1.724,-0.604 2.586,-2.028 2.586,-4.273l0,-33.15c0,-2.175 -0.862,-3.574 -2.586,-4.195c-1.724,-0.622 -2.586,-1.382 -2.586,-2.279c0,-0.725 0.362,-1.088 1.086,-1.088c2.276,-0.104 4.526,-0.458 6.75,-1.062c2.224,-0.604 4.456,-1.286 6.697,-2.046l0,6.837l7.189,-2.745c2.655,-1.001 4.724,-1.744 6.207,-2.227c0.448,-0.138 0.983,-0.207 1.603,-0.207c1.276,-0 2.896,0.345 4.862,1.036l-1.138,13.001l-2.379,-0c-1.345,-5.042 -3.931,-7.563 -7.758,-7.563c-0.379,0 -0.759,0.017 -1.138,0.052c-2.62,0.311 -4.491,1.649 -5.612,4.014c-1.12,2.366 -1.732,5.154 -1.836,8.365Z" style="fill-rule:nonzero;"/><path d="M587.022,145.056c5.069,0.276 9.861,1.813 14.378,4.61l-1.086,9.065c-0.069,0.518 -0.345,0.777 -0.827,0.777l-0.155,-0c-0.414,-0.035 -0.793,-0.449 -1.138,-1.244c-1.242,-2.589 -3.052,-4.756 -5.431,-6.5c-2.379,-1.744 -4.948,-2.668 -7.706,-2.771l-0.207,-0c-2.138,-0 -4.224,0.535 -6.258,1.605c-2.138,1.105 -3.448,2.798 -3.931,5.077c-0.172,0.759 -0.258,1.45 -0.258,2.071c-0,2.176 0.965,3.73 2.896,4.662c2.448,1.243 5.293,2.227 8.534,2.953c4.448,1.001 8.49,2.348 12.128,4.04c3.638,1.692 5.629,5.231 5.974,10.618l-0,0.518c-0,2.555 -0.983,5.111 -2.948,7.666c-2.138,2.762 -5.224,4.851 -9.258,6.267c-2.517,0.829 -5.31,1.295 -8.379,1.399l-1.396,-0c-4.241,-0 -8.293,-0.553 -12.154,-1.658l-4.19,-11.395l0.155,-1.036c0.035,-0.518 0.345,-0.777 0.931,-0.777l0.104,0c0.345,0.069 0.707,0.484 1.086,1.243c1.586,3.419 3.525,5.845 5.818,7.278c2.293,1.433 5.198,2.201 8.715,2.305l0.621,-0c2.448,-0 5.137,-0.57 8.068,-1.71c3.172,-1.243 4.827,-3.487 4.965,-6.733l0,-0.311c0,-3.729 -1.758,-6.095 -5.275,-7.096c-3.655,-1.036 -6.862,-1.951 -9.62,-2.745c-3.414,-0.933 -6.62,-2.418 -9.62,-4.455c-2.965,-2.003 -4.448,-4.972 -4.448,-8.909l0,-0.259c0.035,-5.352 2.103,-9.168 6.206,-11.447c3.759,-2.106 7.914,-3.16 12.465,-3.16c0.414,0 0.827,0.018 1.241,0.052Z" style="fill-rule:nonzero;"/><path d="M623.743,135.111c-0.103,0.035 -0.224,0.052 -0.362,0.052c-0.62,0 -0.931,-0.293 -0.931,-0.88c0,-0.277 0.121,-0.536 0.362,-0.777l19.395,-13.364c0.621,-0.449 1.328,-0.673 2.121,-0.673c2.551,-0 3.827,1.277 3.827,3.833c0,1.795 -0.81,2.987 -2.431,3.574l-21.981,8.235Zm-12.671,31.026c0.965,-6.388 3.508,-11.498 7.629,-15.331c4.12,-3.833 9.542,-5.784 16.265,-5.853l0.207,-0c6.793,-0 11.982,1.933 15.568,5.801c3.586,3.936 5.379,9.064 5.379,15.383c-0.035,1.382 -0.086,2.357 -0.155,2.927c-0.069,0.57 -0.776,0.855 -2.121,0.855l-32.945,-0c0.103,5.594 1.517,10.229 4.241,13.907c2.724,3.678 6.154,5.931 10.292,6.759c1.207,0.277 2.431,0.415 3.672,0.415c3.276,-0 6.672,-0.95 10.189,-2.849c1.965,-1.07 3.293,-1.606 3.982,-1.606c0.173,0 0.311,0.035 0.414,0.104c0.103,0.104 0.155,0.259 0.155,0.466c0,0.449 -0.224,1.088 -0.672,1.917c-0.414,0.828 -0.75,1.381 -1.009,1.657c-0.258,0.276 -0.491,0.518 -0.698,0.725c-3.758,3.246 -8.861,4.869 -15.309,4.869c-9.034,-0.069 -15.809,-2.97 -20.326,-8.702c-3.482,-4.42 -5.224,-9.668 -5.224,-15.746c0,-1.83 0.156,-3.729 0.466,-5.698Zm9.827,0l27.256,0c0,-4.212 -0.948,-8.08 -2.845,-11.602c-1.827,-3.349 -5.172,-5.024 -10.033,-5.024l-0.569,-0c-4.862,0.138 -8.344,1.899 -10.448,5.283c-2.103,3.384 -3.223,7.165 -3.361,11.343Z" style="fill-rule:nonzero;"/><path d="M700.547,184.37l0,-29.524c-1.413,-1.312 -3.275,-2.53 -5.586,-3.652c-2.31,-1.122 -4.361,-1.718 -6.154,-1.787l-0.207,0c-0.69,0 -1.379,0.138 -2.069,0.415c-1.241,0.448 -2.474,0.906 -3.698,1.372c-1.224,0.466 -2.457,0.924 -3.698,1.373c-0.862,0.345 -1.551,0.794 -2.069,1.346c-2.137,2.28 -3.568,5.042 -4.292,8.288c-0.586,2.452 -0.88,4.886 -0.88,7.303c0,0.76 0.035,1.537 0.104,2.331c0.379,4.973 1.724,9.013 4.034,12.121c2.31,3.211 5.206,5.3 8.689,6.267c1.31,0.38 2.638,0.57 3.982,0.57c0.414,-0 0.845,-0.018 1.293,-0.052c0.759,-0.069 1.655,-0.294 2.69,-0.673c0.793,-0.277 2.025,-0.726 3.698,-1.347c1.672,-0.622 3.043,-1.14 4.111,-1.554l0,-2.797l0.052,-0Zm-0.052,5.801l-14.171,5.232c-1.103,0.379 -2.017,0.569 -2.741,0.569l-2.12,0c-4.897,-0.241 -9.12,-2.244 -12.672,-6.008c-3.551,-3.764 -5.568,-8.391 -6.051,-13.882c-0.138,-1.45 -0.207,-2.848 -0.207,-4.195c0,-1.796 0.121,-3.54 0.362,-5.232c0.414,-2.935 1.552,-5.87 3.414,-8.805c0.896,-1.519 2.431,-3.108 4.603,-4.765c0.758,-0.518 1.603,-0.984 2.534,-1.399c2.758,-1.036 5.525,-2.072 8.301,-3.108c2.776,-1.036 5.56,-2.071 8.353,-3.107c0.586,-0.208 1.138,-0.311 1.655,-0.311l0.258,-0c2.207,0.103 4.879,0.656 8.017,1.657c0.276,0.104 0.448,0.173 0.517,0.208c0.759,0.31 1.69,0.656 2.793,1.035c0.448,0.139 0.862,0.208 1.241,0.208c0.552,-0 1.035,-0.156 1.449,-0.467c0.724,-0.621 1.241,-1.139 1.551,-1.553c0.173,-0.242 0.397,-0.363 0.672,-0.363c0.173,-0 0.345,0.035 0.518,0.104c0.758,0.276 1.137,0.621 1.137,1.036l0,56.976c0,5.697 -0.81,9.254 -2.43,10.67c-1.621,1.416 -3.931,2.676 -6.931,3.781l-14.223,5.335c-1.103,0.38 -2.017,0.57 -2.741,0.57c-0.896,-0 -1.603,-0.017 -2.12,-0.052c-4.862,-0.173 -9.086,-2.175 -12.672,-6.008c-1.862,-2.038 -3.344,-4.472 -4.448,-7.304c3,-1.174 6.069,-2.33 9.206,-3.47c0.621,1.761 1.449,3.35 2.483,4.765c2.345,3.177 5.241,5.266 8.689,6.268c1.31,0.345 2.603,0.518 3.879,0.518c0.483,-0 0.948,-0.018 1.396,-0.052c0.759,-0.069 1.655,-0.276 2.69,-0.622c0.414,-0.172 0.948,-0.38 1.603,-0.621c0.655,-0.242 1.362,-0.501 2.121,-0.777c1.655,-0.829 2.758,-2.504 3.31,-5.024c0.551,-2.521 0.827,-4.196 0.827,-5.025l-0.052,-16.782Z" style="fill-rule:nonzero;"/><path d="M720.046,166.137c0.965,-6.388 3.508,-11.498 7.628,-15.331c4.121,-3.833 9.543,-5.784 16.266,-5.853l0.207,-0c6.793,-0 11.982,1.933 15.568,5.801c3.586,3.936 5.379,9.064 5.379,15.383c-0.035,1.382 -0.087,2.357 -0.156,2.927c-0.069,0.57 -0.775,0.855 -2.12,0.855l-32.946,-0c0.104,5.594 1.517,10.229 4.241,13.907c2.724,3.678 6.155,5.931 10.293,6.759c1.206,0.277 2.43,0.415 3.672,0.415c3.275,-0 6.672,-0.95 10.189,-2.849c1.965,-1.07 3.292,-1.606 3.982,-1.606c0.172,0 0.31,0.035 0.414,0.104c0.103,0.104 0.155,0.259 0.155,0.466c-0,0.449 -0.224,1.088 -0.672,1.917c-0.414,0.828 -0.75,1.381 -1.009,1.657c-0.259,0.276 -0.491,0.518 -0.698,0.725c-3.759,3.246 -8.862,4.869 -15.309,4.869c-9.034,-0.069 -15.809,-2.97 -20.326,-8.702c-3.483,-4.42 -5.224,-9.668 -5.224,-15.746c0,-1.83 0.155,-3.729 0.466,-5.698Zm9.826,0l27.257,0c-0,-4.212 -0.949,-8.08 -2.845,-11.602c-1.827,-3.349 -5.172,-5.024 -10.034,-5.024l-0.568,-0c-4.862,0.138 -8.345,1.899 -10.448,5.283c-2.103,3.384 -3.224,7.165 -3.362,11.343Z" style="fill-rule:nonzero;"/><path d="M788.057,171.732l0,15.383c0,2.245 0.862,3.669 2.586,4.273c1.724,0.605 2.586,1.338 2.586,2.202c0,0.725 -0.345,1.087 -1.034,1.087l-17.533,0c-0.724,0 -1.086,-0.362 -1.086,-1.087c-0,-0.864 0.862,-1.597 2.586,-2.202c1.724,-0.604 2.586,-2.028 2.586,-4.273l-0,-57.546c-0,-2.21 -0.862,-3.626 -2.586,-4.247c-1.724,-0.622 -2.586,-1.382 -2.586,-2.279c-0,-0.725 0.362,-1.088 1.086,-1.088c2.275,-0.104 4.525,-0.449 6.749,-1.036c2.224,-0.587 4.439,-1.26 6.646,-2.02l0,47.238l18.309,-14.658c2.103,-1.727 3.965,-3.091 5.586,-4.092c0.931,-0.552 1.81,-0.829 2.637,-0.829c0.621,0 1.224,0.156 1.811,0.467l3.827,2.382c0.414,0.276 0.62,0.587 0.62,0.933c0,0.172 -0.051,0.345 -0.155,0.517l-2.43,5.439l-2.586,-1.347c-1.035,-0.518 -2.035,-0.777 -3,-0.777c-1.173,0 -2.276,0.38 -3.31,1.14c-5,3.764 -9.413,7.131 -13.241,10.1l17.999,17.611c3.724,3.626 6.137,5.681 7.241,6.164c0.793,0.38 1.603,0.57 2.431,0.57c0.344,-0 0.706,-0.035 1.086,-0.104c0.275,-0.069 0.534,-0.103 0.775,-0.103c0.69,-0 1.156,0.259 1.397,0.777c0.069,0.207 0.103,0.379 0.103,0.517c0,0.346 -0.172,0.588 -0.517,0.726l-3.31,1.605c-1.793,0.795 -3.465,1.192 -5.017,1.192c-1,-0 -1.948,-0.19 -2.844,-0.57c-2.242,-0.898 -4.293,-2.262 -6.155,-4.092l-19.705,-19.217c-0.276,0.277 -0.793,0.691 -1.552,1.244Z" style="fill-rule:nonzero;"/><path d="M257.67,235.649l0,24.24l43.704,0l-0,-24.24c-0,-2.21 -0.862,-3.626 -2.586,-4.248c-1.724,-0.621 -2.586,-1.381 -2.586,-2.279c-0,-0.725 0.362,-1.088 1.086,-1.088l17.533,0c0.724,0 1.086,0.363 1.086,1.088c-0,0.898 -0.871,1.658 -2.612,2.279c-1.741,0.622 -2.612,2.038 -2.612,4.248l0,57.546c0,2.244 0.871,3.669 2.612,4.273c1.741,0.604 2.612,1.338 2.612,2.201c-0,0.725 -0.362,1.088 -1.086,1.088l-17.533,-0c-0.724,-0 -1.086,-0.363 -1.086,-1.088c-0,-0.863 0.862,-1.597 2.586,-2.201c1.724,-0.604 2.586,-2.029 2.586,-4.273l-0,-28.54l-43.704,-0l0,28.54c0,2.244 0.862,3.669 2.586,4.273c1.724,0.604 2.586,1.338 2.586,2.201c0,0.725 -0.344,1.088 -1.034,1.088l-17.533,-0c-0.724,-0 -1.086,-0.363 -1.086,-1.088c-0,-0.863 0.862,-1.597 2.586,-2.201c1.724,-0.604 2.586,-2.029 2.586,-4.273l-0,-57.546c-0,-2.21 -0.862,-3.626 -2.586,-4.248c-1.724,-0.621 -2.586,-1.381 -2.586,-2.279c-0,-0.725 0.362,-1.088 1.086,-1.088l17.533,0c0.69,0 1.034,0.363 1.034,1.088c0,0.898 -0.862,1.658 -2.586,2.279c-1.724,0.622 -2.586,2.038 -2.586,4.248Z" style="fill-rule:nonzero;"/><path d="M336.233,241.191c-0.104,0.034 -0.224,0.052 -0.362,0.052c-0.621,-0 -0.931,-0.294 -0.931,-0.881c-0,-0.276 0.121,-0.535 0.362,-0.777l19.395,-13.363c0.62,-0.449 1.327,-0.674 2.12,-0.674c2.552,0 3.828,1.278 3.828,3.833c-0,1.796 -0.811,2.987 -2.431,3.574l-21.981,8.236Zm24.877,55.06l-14.223,5.231c-1.103,0.38 -2.017,0.57 -2.741,0.57l-2.121,-0c-4.896,-0.242 -9.119,-2.245 -12.671,-6.009c-3.551,-3.763 -5.568,-8.391 -6.051,-13.881c-0.138,-1.45 -0.207,-2.849 -0.207,-4.196c0,-1.795 0.121,-3.539 0.362,-5.231c0.414,-2.935 1.552,-5.87 3.414,-8.805c0.896,-1.52 2.43,-3.108 4.603,-4.766c0.758,-0.518 1.603,-0.984 2.534,-1.398c2.758,-1.036 5.525,-2.072 8.301,-3.108c2.776,-1.036 5.56,-2.072 8.353,-3.108c0.586,-0.207 1.138,-0.311 1.655,-0.311l0.258,0c2.207,0.104 4.879,0.656 8.017,1.658c0.276,0.103 0.448,0.173 0.517,0.207c0.759,0.311 1.69,0.656 2.793,1.036c0.448,0.138 0.862,0.207 1.241,0.207c0.552,0 1.035,-0.155 1.448,-0.466c0.724,-0.622 1.242,-1.14 1.552,-1.554c0.172,-0.242 0.396,-0.362 0.672,-0.362c0.173,-0 0.345,0.034 0.518,0.103c0.758,0.276 1.137,0.622 1.137,1.036l0,40.091c0,2.244 0.862,3.669 2.586,4.273c1.724,0.604 2.586,1.338 2.586,2.201c0,0.725 -0.362,1.088 -1.086,1.088l-12.568,-0c-0.586,-0 -0.879,-0.225 -0.879,-0.673l0,-3.833Zm0,-35.326c-1.414,-1.312 -3.276,-2.529 -5.586,-3.651c-2.31,-1.123 -4.361,-1.718 -6.154,-1.787l-0.207,-0c-0.69,-0 -1.379,0.138 -2.069,0.414c-1.241,0.449 -2.474,0.906 -3.698,1.373c-1.224,0.466 -2.457,0.923 -3.698,1.372c-0.862,0.346 -1.552,0.794 -2.069,1.347c-2.137,2.279 -3.568,5.042 -4.292,8.287c-0.587,2.452 -0.88,4.887 -0.88,7.304c0,0.759 0.035,1.536 0.104,2.331c0.379,4.972 1.724,9.012 4.034,12.12c2.31,3.211 5.206,5.301 8.689,6.267c1.31,0.38 2.638,0.57 3.982,0.57c0.414,0 0.845,-0.017 1.293,-0.052c0.759,-0.069 1.655,-0.293 2.69,-0.673c0.793,-0.276 2.034,-0.734 3.723,-1.373c1.69,-0.638 3.069,-1.165 4.138,-1.579l0,-32.27Z" style="fill-rule:nonzero;"/><path d="M427.829,255.176l-32.998,41.489l22.447,0c1.758,-0.069 3.241,-0.673 4.448,-1.813c1.206,-1.139 2.551,-2.745 4.034,-4.817c0.862,-1.174 1.414,-1.761 1.655,-1.761c0.621,-0 0.931,0.311 0.931,0.932l-0,8.184c-0,1.692 -0.224,2.676 -0.673,2.953c-0.448,0.276 -1.896,0.414 -4.344,0.414l-35.428,0.052c-2.483,-0.035 -4.155,-0.19 -5.017,-0.466c-0.414,-0.104 -0.621,-0.328 -0.621,-0.674c0,-0.38 0.276,-0.898 0.828,-1.554l32.687,-41.955l-18.205,0c-1.793,0 -3.242,0.57 -4.345,1.709c-1.103,1.14 -2.379,2.728 -3.827,4.766c-0.862,1.139 -1.414,1.709 -1.655,1.709c-0.655,-0 -0.983,-0.294 -0.983,-0.881l0,-8.235c0,-1.554 0.276,-2.512 0.828,-2.875c0.551,-0.363 1.965,-0.544 4.241,-0.544l32.169,0c3.069,0 4.603,0.553 4.603,1.658c0,0.483 -0.258,1.053 -0.775,1.709Z" style="fill-rule:nonzero;"/><path d="M473.549,296.251l-14.223,5.231c-1.103,0.38 -2.017,0.57 -2.741,0.57l-2.121,-0c-4.896,-0.242 -9.12,-2.245 -12.671,-6.009c-3.551,-3.763 -5.569,-8.391 -6.051,-13.881c-0.138,-1.45 -0.207,-2.849 -0.207,-4.196c-0,-1.795 0.121,-3.539 0.362,-5.231c0.414,-2.935 1.552,-5.87 3.413,-8.805c0.897,-1.52 2.431,-3.108 4.604,-4.766c0.758,-0.518 1.603,-0.984 2.534,-1.398c2.758,-1.036 5.525,-2.072 8.301,-3.108c2.775,-1.036 5.56,-2.072 8.353,-3.108c0.586,-0.207 1.137,-0.311 1.655,-0.311l0.258,0c2.207,0.104 4.879,0.656 8.017,1.658c0.276,0.103 0.448,0.173 0.517,0.207c0.759,0.311 1.689,0.656 2.793,1.036c0.448,0.138 0.862,0.207 1.241,0.207c0.552,0 1.034,-0.155 1.448,-0.466c0.724,-0.622 1.242,-1.14 1.552,-1.554c0.172,-0.242 0.396,-0.362 0.672,-0.362c0.173,-0 0.345,0.034 0.517,0.103c0.759,0.276 1.138,0.622 1.138,1.036l0,40.091c0,2.244 0.862,3.669 2.586,4.273c1.724,0.604 2.586,1.338 2.586,2.201c0,0.725 -0.362,1.088 -1.086,1.088l-12.568,-0c-0.586,-0 -0.879,-0.225 -0.879,-0.673l-0,-3.833Zm-0,-35.326c-1.414,-1.312 -3.276,-2.529 -5.586,-3.651c-2.31,-1.123 -4.361,-1.718 -6.154,-1.787l-0.207,-0c-0.69,-0 -1.38,0.138 -2.069,0.414c-1.241,0.449 -2.474,0.906 -3.698,1.373c-1.224,0.466 -2.457,0.923 -3.698,1.372c-0.862,0.346 -1.552,0.794 -2.069,1.347c-2.138,2.279 -3.569,5.042 -4.293,8.287c-0.586,2.452 -0.879,4.887 -0.879,7.304c0,0.759 0.035,1.536 0.104,2.331c0.379,4.972 1.724,9.012 4.034,12.12c2.31,3.211 5.206,5.301 8.689,6.267c1.31,0.38 2.637,0.57 3.982,0.57c0.414,0 0.845,-0.017 1.293,-0.052c0.759,-0.069 1.655,-0.293 2.69,-0.673c0.793,-0.276 2.034,-0.734 3.723,-1.373c1.69,-0.638 3.069,-1.165 4.138,-1.579l-0,-32.27Z" style="fill-rule:nonzero;"/></g><g id="kilincs"><path d="M114.786,158.583l0,-0.063c0,-25.102 -0.002,-55.147 -0.002,-75.844c0,-12.795 -4.663,-19.555 -6.904,-32.152c-2.314,-13.007 5.451,-25.624 15.857,-22.615c2.404,-24.317 18.694,-27.867 27.755,-27.909c9.061,0.042 25.351,3.592 27.755,27.909c10.406,-3.009 18.171,9.608 15.857,22.615c-2.241,12.597 -6.904,19.357 -6.904,32.152c-0,20.697 -0.002,50.742 -0.002,75.844l-0,0.063c-0,25.103 0.002,55.147 0.002,75.845c-0,12.795 4.663,19.555 6.904,32.152c2.314,13.007 -5.451,25.624 -15.857,22.615c-2.404,24.317 -18.694,27.866 -27.755,27.909c-9.061,-0.043 -25.351,-3.592 -27.755,-27.909c-10.406,3.009 -18.171,-9.608 -15.857,-22.615c2.241,-12.597 6.904,-19.357 6.904,-32.152c0,-20.698 0.002,-50.742 0.002,-75.845Zm30.773,40.986l-0,19.313c-0,3.25 2.639,5.889 5.889,5.889c3.25,0 5.889,-2.639 5.889,-5.889l-0,-19.271c4.615,-2.191 7.809,-6.896 7.809,-12.341c-0,-7.536 -6.118,-13.654 -13.654,-13.654c-7.536,0 -13.654,6.118 -13.654,13.654c0,5.41 3.153,10.09 7.721,12.299Z" style="fill:#6d0612;"/><path d="M147.038,110.372c6.821,0.044 12.323,5.617 12.28,12.438c-0.044,6.82 -5.617,12.323 -12.438,12.279c-1.912,-1.181 -2.994,-2.572 -5.892,-3.712c-2.068,-0.813 -4.093,-1.348 -6.551,-1.71c-1.945,-0.286 -3.953,-0.244 -5.958,-0.25c-5.303,-0.017 -10.53,0.252 -14.704,-0.372c-5.537,-0.75 -10.173,-2.745 -14.416,-5.205c-8.555,-4.958 -14.8,-12.857 -23.705,-16.422c-4.193,-1.644 -8.816,-2.407 -13.417,-2.81c-8.175,-0.717 -16.248,0.168 -22.258,0.854c-4.139,0.498 -9.492,1.423 -14.132,2.344c-3.239,0.644 -5.963,1.35 -7.059,1.849c-6.403,2.351 -13.511,-0.938 -15.862,-7.341c-2.351,-6.403 0.938,-13.51 7.341,-15.862c1.741,-0.494 5.434,-1.22 10.054,-1.513c5.777,-0.366 13.201,-0.596 18.669,-0.455c7.058,0.137 16.503,0.542 25.873,2.527c6.064,1.285 12.098,3.023 17.45,5.833c9.239,4.766 15.303,13.784 24.102,19.904c2.712,1.887 5.738,3.459 9.425,4.222c3.467,0.668 7.855,1.052 12.283,0.768c1.905,-0.122 3.815,-0.289 5.625,-0.761c2.404,-0.625 4.344,-1.412 6.309,-2.448c3.214,-1.693 4.732,-2.807 6.981,-4.157Z" style="fill:#cf9764;"/><circle cx="147.801" cy="122.926" r="14.911" style="fill:#cf9764;"/></g></g></svg>