<?xml version="1.0" encoding="UTF-8" standalone="no"?><!DOCTYPE svg PUBLIC "-//W3C//DTD SVG 1.1//EN" "http://www.w3.org/Graphics/SVG/1.1/DTD/svg11.dtd"><svg width="100%" height="100%" viewBox="0 0 252 101" version="1.1" xmlns="http://www.w3.org/2000/svg" xmlns:xlink="http://www.w3.org/1999/xlink" xml:space="preserve" xmlns:serif="http://www.serif.com/" style="fill-rule:evenodd;clip-rule:evenodd;stroke-linejoin:round;stroke-miterlimit:2;"><g id="fekvo-rovid" serif:id="fekvo rovid"><g><path d="M104.418,49.219l22.173,-21.018c2.205,-2.066 4.07,-3.849 5.597,-5.35c1.017,-1.019 2.035,-1.528 3.052,-1.528c0.509,-0 1.018,0.127 1.527,0.382l4.494,2.208c0.48,0.283 0.72,0.623 0.72,1.019c0,0.17 -0.042,0.354 -0.127,0.552l-2.204,6.199l-2.926,-1.231c-1.102,-0.453 -2.12,-0.68 -3.052,-0.68c-1.47,0 -2.756,0.552 -3.859,1.656l-17.085,16.687l31.882,29.467c0.594,0.595 1.222,1.04 1.887,1.338c0.664,0.297 0.996,0.658 0.996,1.082c-0,0.595 -0.283,0.892 -0.848,0.892l-14.372,0c-0.594,0 -0.891,-0.297 -0.891,-0.892c0,-0.226 0.156,-0.481 0.467,-0.764c0.508,-0.424 0.791,-0.807 0.847,-1.146l0,-0.043c0,-0.368 -0.508,-0.99 -1.526,-1.868l-26.752,-24.712l-0,23.226c-0,1.84 0.706,3.008 2.12,3.503c1.413,0.495 2.119,1.097 2.119,1.804c0,0.595 -0.282,0.892 -0.847,0.892l-14.373,0c-0.594,0 -0.89,-0.297 -0.89,-0.892c-0,-0.707 0.706,-1.309 2.119,-1.804c1.414,-0.495 2.12,-1.663 2.12,-3.503l0,-47.173c0,-1.812 -0.706,-2.972 -2.12,-3.482c-1.413,-0.509 -2.119,-1.132 -2.119,-1.868c-0,-0.594 0.296,-0.892 0.89,-0.892l14.373,0c0.565,0 0.847,0.298 0.847,0.892c0,0.736 -0.706,1.359 -2.119,1.868c-1.414,0.51 -2.12,1.67 -2.12,3.482l-0,21.697Z" style="fill:#fff;fill-rule:nonzero;"/><path d="M171.702,78.559c2.289,-0.142 4.487,-0.743 6.592,-1.805c2.106,-1.061 3.795,-2.611 5.067,-4.649c1.328,-2.123 1.992,-4.685 1.992,-7.685l0,-0.467c-0.084,-3.199 -1.3,-5.648 -3.646,-7.346c-1.074,-0.793 -2.374,-1.415 -3.9,-1.868c-2.996,-0.821 -6.056,-1.401 -9.179,-1.741c-3.123,-0.34 -6.084,-1.189 -8.882,-2.548c-2.516,-1.189 -4.395,-2.936 -5.639,-5.243c-1.244,-2.307 -1.866,-4.82 -1.866,-7.537c0,-5.322 1.852,-9.667 5.554,-13.035c3.788,-3.51 8.565,-5.265 14.331,-5.265l1.271,-0c6.303,0.283 11.66,1.854 16.069,4.713l-1.018,8.916c-0.056,0.51 -0.325,0.765 -0.805,0.765l-0.17,-0c-0.367,-0.029 -0.721,-0.425 -1.06,-1.189c-1.215,-2.548 -2.982,-4.72 -5.299,-6.518c-2.318,-1.797 -4.819,-2.753 -7.505,-2.866l-0.678,0c-2.6,0 -4.918,0.467 -6.953,1.401c-1.328,0.68 -2.388,1.43 -3.18,2.251c-0.735,0.792 -1.385,1.769 -1.95,2.929c-0.452,0.935 -0.806,2.024 -1.06,3.27c-0.198,0.906 -0.297,1.769 -0.297,2.59c0,1.104 0.17,2.123 0.509,3.057c0.594,1.897 1.611,3.354 3.053,4.373c1.102,0.821 2.303,1.387 3.603,1.699c0.707,0.198 1.569,0.389 2.587,0.573c1.017,0.184 2.077,0.361 3.179,0.531c1.611,0.254 3.314,0.516 5.109,0.785c1.795,0.269 3.54,0.658 5.236,1.168c2.827,0.906 4.932,2.109 6.317,3.609c1.018,1.161 1.852,2.434 2.502,3.821c0.763,1.869 1.144,3.921 1.144,6.157c0,6.058 -2.459,11.096 -7.377,15.116c-2.543,2.094 -5.356,3.637 -8.437,4.628c-2.487,0.792 -5.144,1.245 -7.97,1.359c-0.622,0.028 -1.23,0.042 -1.823,0.042c-3.929,0 -7.688,-0.552 -11.278,-1.656l-4.028,-11.209c-0.056,-0.142 -0.084,-0.283 -0.084,-0.425c-0,-0.283 0.099,-0.566 0.296,-0.849c0.227,-0.368 0.523,-0.552 0.891,-0.552c0.339,0.085 0.692,0.495 1.06,1.231c1.809,3.935 4.084,6.567 6.826,7.898c2.261,1.104 5.13,1.656 8.606,1.656c0.735,-0 1.498,-0.029 2.29,-0.085Z" style="fill:#fff;fill-rule:nonzero;"/><path d="M196.631,78.304l41.21,-53.117l-25.778,0.042c-1.695,0 -3.066,0.538 -4.112,1.614c-1.046,1.075 -2.275,2.59 -3.689,4.543c-0.791,1.132 -1.328,1.698 -1.611,1.698c-0.593,0 -0.89,-0.297 -0.89,-0.891l-0,-7.855c-0,-1.529 0.268,-2.456 0.806,-2.782c0.537,-0.325 1.879,-0.488 4.027,-0.488l39.175,0c2.318,0 3.731,0.241 4.24,0.722c0.197,0.198 0.296,0.453 0.296,0.764c0,0.481 -0.212,1.076 -0.636,1.784l-41.633,52.395l33.112,-0.042c1.696,-0 3.066,-0.531 4.112,-1.593c1.046,-1.061 2.29,-2.583 3.731,-4.564c0.791,-1.104 1.314,-1.656 1.569,-1.656c0.593,-0 0.89,0.297 0.89,0.892l0,7.855c0,1.641 -0.219,2.597 -0.657,2.866c-0.438,0.269 -1.816,0.403 -4.134,0.403l-45.407,0c-2.374,0 -3.971,-0.127 -4.791,-0.382c-0.395,-0.113 -0.593,-0.34 -0.593,-0.679c-0,-0.368 0.254,-0.878 0.763,-1.529Z" style="fill:#fff;fill-rule:nonzero;"/></g><g id="kilincs"><path d="M36.341,50.21l0,-0.02c0,-7.948 -0.001,-17.46 -0.001,-24.014c0,-4.051 -1.476,-6.191 -2.185,-10.179c-0.733,-4.119 1.725,-8.113 5.02,-7.161c0.761,-7.699 5.918,-8.823 8.787,-8.836c2.869,0.013 8.026,1.137 8.787,8.836c3.295,-0.952 5.753,3.042 5.02,7.161c-0.709,3.988 -2.185,6.128 -2.185,10.179c-0,6.554 -0.001,16.066 -0.001,24.014l-0,0.02c-0,7.948 0.001,17.46 0.001,24.014c-0,4.051 1.476,6.191 2.185,10.179c0.733,4.119 -1.725,8.113 -5.02,7.161c-0.761,7.699 -5.918,8.823 -8.787,8.836c-2.869,-0.013 -8.026,-1.137 -8.787,-8.836c-3.295,0.952 -5.753,-3.042 -5.02,-7.161c0.709,-3.988 2.185,-6.128 2.185,-10.179c0,-6.554 0.001,-16.066 0.001,-24.014Zm9.743,12.977l-0,6.115c-0,1.029 0.835,1.864 1.864,1.864c1.029,0 1.864,-0.835 1.864,-1.864l0,-6.102c1.462,-0.694 2.473,-2.183 2.473,-3.907c-0,-2.386 -1.937,-4.323 -4.323,-4.323c-2.386,-0 -4.323,1.937 -4.323,4.323c0,1.713 0.999,3.194 2.445,3.894Z" style="fill:#fff;"/><path d="M46.552,34.946c2.159,0.014 3.901,1.778 3.888,3.937c-0.014,2.16 -1.779,3.902 -3.938,3.888c-0.606,-0.374 -0.948,-0.814 -1.865,-1.175c-0.655,-0.257 -1.296,-0.427 -2.075,-0.541c-0.615,-0.091 -1.251,-0.078 -1.886,-0.08c-1.679,-0.005 -3.334,0.08 -4.655,-0.117c-1.753,-0.238 -3.221,-0.87 -4.564,-1.648c-2.709,-1.57 -4.686,-4.071 -7.505,-5.2c-1.327,-0.52 -2.791,-0.762 -4.248,-0.89c-2.588,-0.226 -5.144,0.054 -7.047,0.271c-1.31,0.157 -3.005,0.45 -4.474,0.742c-1.025,0.204 -1.888,0.427 -2.235,0.585c-2.027,0.745 -4.277,-0.297 -5.022,-2.324c-0.744,-2.027 0.297,-4.277 2.324,-5.022c0.552,-0.156 1.721,-0.386 3.184,-0.479c1.829,-0.116 4.179,-0.189 5.91,-0.144c2.235,0.043 5.225,0.172 8.192,0.8c1.919,0.407 3.83,0.957 5.524,1.847c2.925,1.509 4.845,4.364 7.631,6.302c0.858,0.597 1.816,1.095 2.984,1.336c1.098,0.212 2.487,0.334 3.889,0.244c0.603,-0.039 1.207,-0.092 1.78,-0.241c0.761,-0.198 1.376,-0.447 1.998,-0.775c1.017,-0.536 1.498,-0.889 2.21,-1.316Z" style="fill:#fff;"/><ellipse cx="46.793" cy="38.92" rx="4.721" ry="4.721" style="fill:#fff;"/></g></g></svg>