<?xml version="1.0" encoding="UTF-8" standalone="no"?><!DOCTYPE svg PUBLIC "-//W3C//DTD SVG 1.1//EN" "http://www.w3.org/Graphics/SVG/1.1/DTD/svg11.dtd"><svg width="100%" height="100%" viewBox="0 0 1439 1439" version="1.1" xmlns="http://www.w3.org/2000/svg" xmlns:xlink="http://www.w3.org/1999/xlink" xml:space="preserve" xmlns:serif="http://www.serif.com/" style="fill-rule:evenodd;clip-rule:evenodd;stroke-linecap:round;stroke-linejoin:round;stroke-miterlimit:1.5;"><g id="submark"><g id="kilincs"><path d="M693.275,719.275l-0,-0.133c-0,-53.263 -0.004,-117.004 -0.004,-160.917c-0,-27.146 -9.884,-41.487 -14.638,-68.217c-4.904,-27.596 11.559,-54.362 33.617,-47.979c5.1,-51.592 39.633,-59.121 58.846,-59.212c19.208,0.091 53.746,7.62 58.841,59.212c22.063,-6.383 38.525,20.383 33.617,47.979c-4.75,26.73 -14.637,41.071 -14.637,68.217c-0,43.913 -0.005,107.654 -0.005,160.917l0,0.133c0,53.258 0.005,117 0.005,160.912c-0,27.146 9.887,41.488 14.637,68.217c4.908,27.596 -11.554,54.363 -33.617,47.979c-5.095,51.592 -39.633,59.125 -58.841,59.213c-19.213,-0.088 -53.746,-7.621 -58.846,-59.213c-22.058,6.384 -38.521,-20.383 -33.617,-47.979c4.754,-26.729 14.638,-41.071 14.638,-68.217c-0,-43.912 0.004,-107.654 0.004,-160.912Zm65.242,86.954l-0,40.975c-0,6.896 5.591,12.496 12.483,12.496c6.892,0 12.487,-5.6 12.487,-12.496l0,-40.883c9.784,-4.65 16.555,-14.633 16.555,-26.183c-0,-15.988 -12.971,-28.971 -28.946,-28.971c-15.979,-0 -28.95,12.983 -28.95,28.971c-0,11.474 6.687,21.404 16.371,26.091Z" style="fill:#6d0612;"/><path d="M761.65,616.983c14.467,0.092 26.137,11.913 26.046,26.379c-0.092,14.467 -11.913,26.134 -26.379,26.042c-4.055,-2.504 -6.346,-5.454 -12.492,-7.871c-4.383,-1.725 -8.675,-2.858 -13.888,-3.629c-4.12,-0.604 -8.379,-0.517 -12.633,-0.529c-11.241,-0.038 -22.325,0.537 -31.175,-0.788c-11.741,-1.595 -21.575,-5.829 -30.571,-11.045c-18.133,-10.521 -31.375,-27.28 -50.254,-34.842c-8.887,-3.488 -18.687,-5.108 -28.437,-5.963c-17.334,-1.52 -34.446,0.359 -47.188,1.809c-8.771,1.058 -20.121,3.021 -29.958,4.975c-6.863,1.362 -12.638,2.862 -14.958,3.921c-13.58,4.987 -28.655,-1.984 -33.646,-15.563c-4.988,-13.579 1.983,-28.654 15.562,-33.642c3.692,-1.05 11.521,-2.591 21.321,-3.212c12.246,-0.779 27.987,-1.267 39.579,-0.967c14.967,0.288 34.992,1.146 54.859,5.359c12.858,2.729 25.65,6.412 37,12.375c19.587,10.112 32.441,29.245 51.095,42.229c5.75,4.004 12.163,7.337 19.98,8.954c7.35,1.421 16.65,2.233 26.037,1.633c4.038,-0.262 8.088,-0.616 11.925,-1.616c5.096,-1.325 9.213,-2.996 13.375,-5.192c6.817,-3.592 10.033,-5.954 14.8,-8.817Z" style="fill:#cf9764;"/><ellipse cx="763.275" cy="643.608" rx="31.613" ry="31.638" style="fill:#cf9764;"/></g><circle cx="719.317" cy="719.317" r="473.342" style="fill:none;stroke:#000;stroke-width:7.58px;"/><g><path d="M130.983,672.067l1.254,-10.934c0.838,-7.329 0.084,-12.8 -2.258,-16.404c-2.346,-3.604 -6.196,-5.712 -11.554,-6.325c-5.442,-0.625 -9.554,0.709 -12.333,3.992c-2.775,3.283 -4.575,8.504 -5.392,15.662l-1.192,10.405l31.475,3.604Zm13.042,1.491l38.454,4.4l-1.8,15.742l-96.275,-11.021l3.113,-27.2c1.421,-12.421 4.8,-21.354 10.137,-26.791c5.338,-5.438 12.704,-7.617 22.1,-6.542c11.984,1.371 19.809,8.583 23.475,21.633l45.721,-22.321l-2.05,17.913l-41.096,18.646l-1.779,15.541Z" style="fill-rule:nonzero;"/><path d="M206.275,554.608l-14.063,52.98l-93.662,-24.863l14.067,-52.979l12.941,3.433l-10,37.671l25.496,6.767l9.371,-35.296l12.812,3.4l-9.37,35.3l29.404,7.804l10,-37.671l13.004,3.454Zm-111.017,10.304l-1.604,-0.425c-2.342,-3.229 -5.008,-6.62 -7.996,-10.179c-2.987,-3.558 -5.583,-6.433 -7.791,-8.616l4.641,-17.492l1.346,0.358c2.017,2.913 4.496,7.125 7.446,12.638c2.946,5.516 5.15,10.091 6.608,13.725l-2.65,9.991Z" style="fill-rule:nonzero;"/><path d="M180.65,477.025l14.412,-32.617l44.5,19.663c-0.62,6.104 -1.649,11.771 -3.091,17.004c-1.446,5.233 -3.425,10.696 -5.942,16.396c-5.929,13.417 -14.475,22.012 -25.629,25.775c-11.158,3.767 -23.971,2.454 -38.442,-3.942c-14.266,-6.304 -23.621,-15.341 -28.058,-27.108c-4.438,-11.767 -3.475,-24.846 2.883,-39.233c4.088,-9.259 9.742,-17.242 16.963,-23.955l9.812,10.421c-6.491,5.733 -11.329,12.196 -14.508,19.388c-4.179,9.458 -4.513,18.25 -1,26.37c3.512,8.121 10.421,14.459 20.729,19.017c10.829,4.783 20.158,5.946 27.988,3.488c7.825,-2.459 13.791,-8.338 17.9,-17.634c2.07,-4.687 3.7,-9.958 4.883,-15.812l-22.854,-10.1l-8.117,18.371l-12.429,-5.492Z" style="fill-rule:nonzero;"/><path d="M255.858,445.942l-82.671,-50.554l8.267,-13.517l82.671,50.554l-8.267,13.517Z" style="fill-rule:nonzero;"/><path d="M326.9,351.317l-77.725,-36.029l-0.371,0.383c9.167,7.812 17.529,15.371 25.092,22.679l33.891,32.746l-9.995,10.346l-69.684,-67.338l15.521,-16.067l74.133,34.217l0.275,-0.283l-36.179,-73.492l15.567,-16.112l69.687,67.341l-10.595,10.963l-34.463,-33.304c-3.462,-3.346 -7.887,-7.792 -13.283,-13.342c-5.392,-5.546 -8.613,-8.954 -9.667,-10.217l-0.367,0.38l37.884,77.07l-9.721,10.059Z" style="fill-rule:nonzero;"/><path d="M432.858,263.108l-44.846,31.525l-55.725,-79.279l44.846,-31.521l7.696,10.954l-31.883,22.413l15.171,21.579l29.879,-21l7.621,10.846l-29.875,21l17.495,24.892l31.884,-22.413l7.737,11.004Z" style="fill-rule:nonzero;"/><path d="M488.525,203.317c3.954,7.658 4.287,15.091 1,22.308c-3.283,7.217 -9.796,13.342 -19.533,18.367c-9.738,5.029 -18.488,7.633 -26.255,7.812l-6.87,-13.308c4.879,-0.183 9.8,-0.883 14.762,-2.104c4.967,-1.221 9.354,-2.817 13.163,-4.784c5.575,-2.875 9.141,-6.062 10.695,-9.55c1.555,-3.487 1.409,-7.016 -0.433,-10.591c-1.662,-3.221 -4.292,-5.321 -7.879,-6.3c-3.592,-0.984 -9.983,-1.038 -19.183,-0.167c-9.496,0.875 -16.905,0.1 -22.234,-2.321c-5.329,-2.421 -9.471,-6.496 -12.433,-12.229c-3.708,-7.183 -4.075,-14.158 -1.1,-20.917c2.975,-6.758 8.762,-12.354 17.362,-16.795c8.246,-4.259 17.384,-6.688 27.413,-7.292l1.454,13.796c-9.317,0.733 -16.979,2.65 -22.987,5.754c-4.555,2.35 -7.496,5.125 -8.83,8.325c-1.333,3.2 -1.158,6.429 0.525,9.687c1.155,2.238 2.617,3.909 4.38,5.013c1.762,1.104 4.087,1.804 6.979,2.1c2.887,0.3 7.737,0.158 14.55,-0.425c7.679,-0.633 13.579,-0.571 17.7,0.187c4.121,0.755 7.608,2.213 10.462,4.367c2.854,2.158 5.284,5.179 7.292,9.067Z" style="fill-rule:nonzero;"/><path d="M549.65,208.567l-14.958,5.221l-27.455,-78.663l-26.908,9.392l-4.479,-12.829l68.775,-24.005l4.479,12.83l-26.912,9.391l27.458,78.663Z" style="fill-rule:nonzero;"/><path d="M644.858,185.692l-53.841,10.287l-18.18,-95.183l53.842,-10.288l2.508,13.154l-38.279,7.313l4.95,25.908l35.871,-6.85l2.488,13.021l-35.871,6.85l5.704,29.883l38.283,-7.312l2.525,13.217Z" style="fill-rule:nonzero;"/><path d="M680.067,130.392l10.995,-0.346c7.38,-0.229 12.68,-1.767 15.905,-4.608c3.229,-2.842 4.758,-6.959 4.587,-12.346c-0.171,-5.475 -2.083,-9.35 -5.733,-11.625c-3.654,-2.271 -9.079,-3.296 -16.279,-3.071l-10.467,0.329l0.992,31.667Zm0.412,13.116l1.208,38.692l-15.833,0.496l-3.033,-96.858l27.362,-0.859c12.5,-0.391 21.825,1.663 27.979,6.154c6.155,4.496 9.375,11.467 9.675,20.917c0.375,12.058 -5.625,20.846 -18.008,26.362l28.704,42.005l-18.02,0.566l-24.401,-37.962l-15.633,0.487Z" style="fill-rule:nonzero;"/><path d="M810.9,161.525c-0.917,8.571 -4.738,14.958 -11.454,19.171c-6.717,4.212 -15.525,5.733 -26.421,4.567c-10.896,-1.171 -19.633,-3.817 -26.213,-7.946l1.596,-14.896c4.175,2.537 8.667,4.662 13.484,6.379c4.816,1.717 9.354,2.804 13.616,3.262c6.238,0.671 10.967,-0.025 14.188,-2.079c3.221,-2.054 5.046,-5.079 5.475,-9.079c0.383,-3.6 -0.65,-6.8 -3.104,-9.596c-2.455,-2.796 -7.763,-6.366 -15.917,-10.708c-8.404,-4.5 -14.167,-9.229 -17.279,-14.188c-3.113,-4.954 -4.325,-10.637 -3.634,-17.054c0.863,-8.041 4.396,-14.062 10.6,-18.062c6.209,-4 14.121,-5.484 23.746,-4.45c9.225,0.987 18.192,3.996 26.896,9.016l-6.387,12.313c-8.18,-4.521 -15.634,-7.142 -22.355,-7.863c-5.095,-0.545 -9.083,0.15 -11.958,2.084c-2.871,1.937 -4.504,4.729 -4.896,8.375c-0.271,2.504 0.029,4.704 0.892,6.596c0.862,1.891 2.421,3.758 4.667,5.6c2.245,1.841 6.37,4.391 12.375,7.658c6.758,3.704 11.65,7.008 14.67,9.908c3.021,2.9 5.13,6.038 6.325,9.413c1.192,3.371 1.555,7.233 1.088,11.579Z" style="fill-rule:nonzero;"/><path d="M879.65,204.9l-53.096,-13.608l24.058,-93.871l53.096,13.608l-3.32,12.971l-37.755,-9.675l-6.55,25.554l35.38,9.067l-3.292,12.842l-35.379,-9.067l-7.555,29.471l37.755,9.675l-3.342,13.033Zm-11.254,-110.925l0.412,-1.604c3.209,-2.371 6.575,-5.067 10.109,-8.084c3.533,-3.016 6.383,-5.641 8.554,-7.866l17.525,4.491l-0.346,1.35c-2.892,2.038 -7.083,4.559 -12.575,7.55c-5.487,2.996 -10.042,5.238 -13.663,6.73l-10.016,-2.567Z" style="fill-rule:nonzero;"/><path d="M957.108,178.608l32.738,14.138l-19.292,44.662c-6.108,-0.566 -11.783,-1.55 -17.025,-2.95c-5.246,-1.4 -10.729,-3.333 -16.446,-5.804c-13.471,-5.816 -22.133,-14.287 -25.991,-25.412c-3.863,-11.121 -2.655,-23.946 3.616,-38.471c6.184,-14.317 15.142,-23.746 26.871,-28.283c11.733,-4.538 24.817,-3.688 39.258,2.549c9.292,4.013 17.321,9.601 24.096,16.759l-10.341,9.904c-5.784,-6.446 -12.284,-11.229 -19.505,-14.346c-9.495,-4.1 -18.287,-4.358 -26.379,-0.779c-8.091,3.583 -14.371,10.546 -18.837,20.888c-4.696,10.875 -5.784,20.212 -3.259,28.016c2.53,7.804 8.455,13.721 17.784,17.75c4.708,2.034 9.991,3.617 15.854,4.754l9.908,-22.941l-18.437,-7.963l5.387,-12.471Z" style="fill-rule:nonzero;"/><path d="M1034.94,282.775l-45.963,-29.871l52.808,-81.25l45.963,29.867l-7.296,11.229l-32.679,-21.237l-14.375,22.116l30.621,19.904l-7.225,11.113l-30.621,-19.9l-16.579,25.508l32.679,21.238l-7.333,11.283Z" style="fill-rule:nonzero;"/><path d="M1107.11,344.692l-13.629,-12.304l6.825,-52.955l-12.046,-0.604l-24.296,26.909l-11.758,-10.617l64.938,-71.925l11.758,10.617l-31.004,34.341c6.766,-1.037 13.387,-1.937 19.854,-2.704l40.175,-5.429l13.383,12.079c-25.887,3.421 -44.379,5.804 -55.479,7.15l-8.721,65.442Z" style="fill-rule:nonzero;"/><path d="M1182.9,443.608l-9.096,-13.05l35.842,-24.97l-25.542,-36.655l-35.837,24.971l-9.059,-12.996l79.509,-55.4l9.058,12.996l-32.521,22.658l25.538,36.655l32.52,-22.659l9.096,13.05l-79.508,55.4Z" style="fill-rule:nonzero;"/><path d="M1220.23,520.692l20.413,-20.025l-15.467,-33.671l-28.408,2.621l-6.975,-15.18l103.554,-7.666l7.196,15.658l-73.288,73.563l-7.025,-15.3Zm31.08,-29.521l20.179,-19.263c1.329,-1.337 3.479,-3.333 6.441,-5.983c2.967,-2.65 5.159,-4.546 6.579,-5.688c-5.437,1.188 -11.566,2.08 -18.387,2.688l-26.6,2.588l11.787,25.658Zm48.309,-48.375l1.508,-0.692c3.863,0.996 8.075,1.917 12.646,2.763c4.571,0.841 8.4,1.404 11.496,1.683l7.554,16.442l-1.267,0.583c-3.408,-0.962 -8.004,-2.633 -13.787,-5.008c-5.784,-2.379 -10.396,-4.5 -13.834,-6.375l-4.316,-9.396Z" style="fill-rule:nonzero;"/><path d="M1246.82,607.275l-18.725,-66.754l10.591,-2.971l82.821,27.504l-12.837,-45.758l13.083,-3.671l18.008,64.2l-10.72,3.008l-82.746,-27.729l13.604,48.5l-13.079,3.671Z" style="fill-rule:nonzero;"/><path d="M1256.94,683.942l25.6,-12.746l-4.317,-36.8l-27.829,-6.279l-1.946,-16.592l100.862,24.679l2.005,17.117l-92.417,47.341l-1.958,-16.72Zm38.675,-18.484l25.141,-12.091c1.679,-0.867 4.338,-2.1 7.975,-3.704c3.638,-1.609 6.309,-2.734 8.013,-3.38c-5.538,-0.55 -11.642,-1.591 -18.317,-3.12l-26.1,-5.751l3.288,28.046Z" style="fill-rule:nonzero;"/></g><g><path d="M160.4,1028.86l-7.933,-16.554l26.425,-46.396l-10.913,-5.137l-32.696,15.667l-6.846,-14.288l87.392,-41.871l6.846,14.288l-41.725,19.991c6.654,1.613 13.117,3.292 19.392,5.038l39.229,10.237l7.791,16.259c-25.245,-6.671 -43.258,-11.488 -54.041,-14.459l-32.921,57.225Z" style="fill-rule:nonzero;"/><path d="M293.067,1054.69l-51.925,35.146c-5.93,4.012 -11.98,6.25 -18.146,6.716c-6.167,0.467 -12.079,-0.896 -17.734,-4.083c-5.654,-3.192 -10.745,-8.133 -15.279,-14.829c-6.737,-9.954 -9.341,-19.479 -7.808,-28.571c1.529,-9.092 6.904,-16.758 16.125,-23l51.708,-34.996l8.917,13.171l-50.775,34.367c-6.625,4.483 -10.471,9.329 -11.538,14.533c-1.062,5.2 0.559,10.987 4.867,17.354c8.371,12.371 19.054,14.158 32.046,5.363l50.662,-34.292l8.88,13.121Z" style="fill-rule:nonzero;"/><path d="M322.942,1105.44c-6.234,-6.634 -13.488,-9.642 -21.759,-9.025c-8.271,0.616 -16.545,4.812 -24.825,12.587c-8.662,8.138 -13.5,16.121 -14.512,23.954c-1.009,7.83 1.737,15.209 8.241,22.134c2.817,2.991 5.838,5.612 9.063,7.854c3.229,2.242 6.733,4.437 10.508,6.587l-9.904,9.304c-7.296,-3.575 -14.241,-8.87 -20.837,-15.891c-9.713,-10.338 -14.038,-21.221 -12.975,-32.642c1.058,-11.425 7.42,-22.612 19.079,-33.567c7.341,-6.895 15.029,-11.587 23.062,-14.07c8.034,-2.484 15.909,-2.559 23.617,-0.225c7.712,2.337 14.792,6.933 21.233,13.795c6.779,7.213 11.525,15.3 14.246,24.267l-13.517,4.875c-1.108,-3.442 -2.487,-6.892 -4.129,-10.35c-1.641,-3.462 -3.841,-6.654 -6.591,-9.587Zm5.962,-22.788l1.208,-1.137c3.98,-0.279 8.267,-0.75 12.867,-1.4c4.6,-0.654 8.413,-1.342 11.438,-2.059l12.387,13.188l-1.012,0.954c-3.538,0.171 -8.43,0.05 -14.667,-0.367c-6.238,-0.412 -11.288,-0.962 -15.142,-1.645l-7.079,-7.534Z" style="fill-rule:nonzero;"/><path d="M345.192,1237.11l9.17,-27.087l-29,-23.059l-24.166,15.163l-13.075,-10.396l88.937,-53.596l13.488,10.725l-32.179,98.725l-13.175,-10.475Zm14.4,-40.375l9.312,-26.3c0.579,-1.795 1.596,-4.545 3.046,-8.246c1.446,-3.704 2.55,-6.387 3.304,-8.045c-4.317,3.512 -9.383,7.079 -15.196,10.7l-22.566,14.32l22.1,17.571Z" style="fill-rule:nonzero;"/><path d="M473.233,1280.73c-3.875,7.696 -9.696,12.334 -17.466,13.917c-7.767,1.579 -16.55,-0.092 -26.338,-5.017c-9.787,-4.925 -17.037,-10.475 -21.746,-16.654l6.734,-13.379c3.012,3.837 6.47,7.408 10.379,10.708c3.904,3.3 7.771,5.917 11.6,7.842c5.604,2.821 10.275,3.833 14.012,3.042c3.738,-0.788 6.509,-2.979 8.317,-6.571c1.629,-3.238 1.783,-6.596 0.467,-10.079c-1.313,-3.48 -5.025,-8.688 -11.134,-15.621c-6.287,-7.167 -10.016,-13.621 -11.187,-19.354c-1.171,-5.734 -0.308,-11.484 2.591,-17.246c3.638,-7.221 9.063,-11.617 16.28,-13.179c7.216,-1.563 15.146,-0.171 23.791,4.179c8.288,4.171 15.625,10.137 22.009,17.9l-10.309,9.283c-6.071,-7.108 -12.125,-12.183 -18.162,-15.221c-4.579,-2.304 -8.554,-3.058 -11.925,-2.254c-3.371,0.8 -5.884,2.842 -7.529,6.117c-1.134,2.25 -1.63,4.412 -1.484,6.487c0.142,2.075 0.942,4.371 2.396,6.884c1.458,2.512 4.421,6.354 8.896,11.525c5.025,5.841 8.442,10.65 10.25,14.429c1.808,3.779 2.679,7.458 2.608,11.033c-0.066,3.579 -1.083,7.321 -3.05,11.229Z" style="fill-rule:nonzero;"/><path d="M516.608,1324.94l-14.95,-5.234l27.542,-78.633l-26.9,-9.421l4.492,-12.825l68.75,24.079l-4.492,12.825l-26.9,-9.425l-27.542,78.634Z" style="fill-rule:nonzero;"/><path d="M623.483,1351.4l-4.287,-28.275l-36.35,-7.167l-14.509,24.567l-16.387,-3.233l54.4,-88.446l16.904,3.333l16.746,102.479l-16.517,-3.258Zm-5.741,-42.479l-3.804,-27.638c-0.309,-1.862 -0.671,-4.771 -1.084,-8.725c-0.417,-3.954 -0.667,-6.841 -0.758,-8.662c-2.225,5.1 -5.083,10.596 -8.588,16.479l-13.47,23.083l27.704,5.463Z" style="fill-rule:nonzero;"/><path d="M677.567,1305.07l10.995,0.404c7.371,0.271 12.767,-0.9 16.18,-3.517c3.412,-2.616 5.216,-6.617 5.416,-12.004c0.2,-5.475 -1.441,-9.471 -4.933,-11.988c-3.488,-2.516 -8.829,-3.908 -16.029,-4.17l-10.463,-0.388l-1.166,31.663Zm-0.484,13.116l-1.425,38.679l-15.829,-0.579l3.563,-96.841l27.358,1.008c12.496,0.458 21.662,3.142 27.496,8.042c5.833,4.904 8.575,12.079 8.225,21.529c-0.442,12.054 -7.029,20.412 -19.759,25.075l25.78,43.862l-18.017,-0.666l-21.758,-39.534l-15.634,-0.575Z" style="fill-rule:nonzero;"/><path d="M753.317,1357.23l-6.167,-96.708l15.808,-1.008l6.171,96.708l-15.812,1.008Z" style="fill-rule:nonzero;"/><path d="M876.525,1339.9l-15.633,2.95l-8.1,-42.921l-43.896,8.284l8.096,42.92l-15.567,2.938l-17.967,-95.225l15.567,-2.938l7.35,38.95l43.9,-8.283l-7.35,-38.95l15.633,-2.95l17.967,95.225Z" style="fill-rule:nonzero;"/><path d="M1003.36,1292.86l-63.704,27.355l-4.342,-10.109l16.355,-85.721l-43.671,18.75l-5.358,-12.483l61.266,-26.313l4.396,10.234l-16.592,85.679l46.288,-19.879l5.362,12.487Z" style="fill-rule:nonzero;"/><path d="M1075.98,1250.32l-22.283,-17.921l-31.621,19.308l5.934,27.904l-14.255,8.704l-19.762,-101.937l14.708,-8.983l81.65,64.154l-14.371,8.771Zm-32.962,-27.4l-21.496,-17.784c-1.487,-1.162 -3.721,-3.062 -6.7,-5.695c-2.979,-2.634 -5.117,-4.588 -6.417,-5.867c1.813,5.262 3.421,11.242 4.821,17.946l5.696,26.112l24.096,-14.712Z" style="fill-rule:nonzero;"/><path d="M1167.11,1176.94l-14.708,12.683l-86.521,-27.35l-0.4,0.346l3.063,3.046c5.837,5.82 10.979,11.308 15.42,16.462l32.9,38.146l-10.891,9.392l-63.288,-73.384l14.559,-12.554l86.158,27.138l0.3,-0.259c-0.729,-0.712 -3.279,-3.4 -7.65,-8.062c-4.371,-4.663 -7.725,-8.346 -10.063,-11.059l-33.162,-38.445l10.996,-9.484l63.287,73.384Z" style="fill-rule:nonzero;"/><path d="M1228.03,1107.11l-26.858,-9.816l-23.746,28.441l14.583,24.521l-10.704,12.821l-51.458,-90.187l11.045,-13.23l97.93,34.525l-10.792,12.925Zm-40.017,-15.362l-26.071,-9.938c-1.779,-0.625 -4.504,-1.704 -8.17,-3.241c-3.671,-1.534 -6.321,-2.7 -7.963,-3.492c3.408,4.396 6.85,9.546 10.329,15.446l13.779,22.9l18.096,-21.675Z" style="fill-rule:nonzero;"/><path d="M1266.9,1048.94l-8.346,13.462l-70.817,-43.887l-15.016,24.229l-11.55,-7.158l38.375,-61.917l11.55,7.154l-15.017,24.229l70.821,43.888Z" style="fill-rule:nonzero;"/><path d="M1315.86,950.275l-28.533,-1.929l-14.867,33.937l20.85,19.48l-6.704,15.3l-74.579,-72.25l6.912,-15.784l103.675,5.825l-6.754,15.421Zm-42.716,-3.583l-27.809,-2.267c-1.883,-0.1 -4.8,-0.379 -8.75,-0.829c-3.954,-0.454 -6.825,-0.829 -8.621,-1.134c4.5,3.271 9.242,7.255 14.23,11.946l19.62,18.146l11.33,-25.862Z" style="fill-rule:nonzero;"/></g><circle cx="719.317" cy="719.317" r="715.004" style="fill:none;stroke:#000;stroke-width:8.63px;"/><circle cx="141.15" cy="815.358" r="24.479" style="fill:#cf9764;"/><circle cx="1301.53" cy="815.358" r="24.479" style="fill:#cf9764;"/></g></svg>